<svg width="997" height="549" viewBox="0 0 997 549" fill="none" xmlns="http://www.w3.org/2000/svg"><path d="M58.5 80c0-8.56 6.94-15.5 15.5-15.5h849c8.56 0 15.5 6.94 15.5 15.5v35.5h-880V80z" fill="#fff"/><circle cx="96" cy="90" r="8" fill="#717783"/><circle cx="124" cy="90" r="8" fill="#717783"/><circle cx="152" cy="90" r="8" fill="#717783"/><path d="M58.5 80c0-8.56 6.94-15.5 15.5-15.5h849c8.56 0 15.5 6.94 15.5 15.5v35.5h-880V80z" stroke="#717783"/><path fill="#fff" stroke="#717783" d="M58.5 114.5h880v359h-880z"/><rect x="356.5" y="219.5" width="73" height="73" rx="5.5" stroke="#717783"/><rect x="462.5" y="219.5" width="73" height="73" rx="5.5" stroke="#717783"/><rect x="568.5" y="219.5" width="73" height="73" rx="5.5" stroke="#717783"/><rect x="674.5" y="219.5" width="73" height="73" rx="5.5" stroke="#717783"/><rect x="780.5" y="219.5" width="73" height="73" rx="5.5" stroke="#717783"/><rect x="144.5" y="333.5" width="73" height="73" rx="5.5" stroke="#717783"/><rect x="250" y="333" width="74" height="74" rx="6" fill="#06C569"/><rect x="356" y="333" width="74" height="74" rx="6" fill="#06C569"/><rect x="462" y="333" width="74" height="74" rx="6" fill="#06C569"/><rect x="568" y="333" width="74" height="74" rx="6" fill="#06C569"/><rect x="674" y="333" width="74" height="74" rx="6" fill="#06C569"/><rect x="780.5" y="333.5" width="73" height="73" rx="5.5" stroke="#717783"/><g clip-path="url(#a)" stroke="#717783"><rect x="144.5" y="447.5" width="73" height="73" rx="5.5"/><rect x="250.5" y="447.5" width="73" height="73" rx="5.5"/><rect x="356.5" y="447.5" width="73" height="73" rx="5.5"/><rect x="462.5" y="447.5" width="73" height="73" rx="5.5"/><rect x="568.5" y="447.5" width="73" height="73" rx="5.5"/></g><path d="M831.5 158l-7.5 7.5 7.5 7.5" stroke="#717783"/><rect x="-.5" y=".5" width="38.5" height="38" rx="19" transform="matrix(-1 0 0 1 846.5 146)" stroke="#717783"/><path d="M883.5 173l7.5-7.5-7.5-7.5" stroke="#717783"/><rect x=".5" y="-.5" width="38.5" height="38" rx="19" transform="matrix(1 0 0 -1 867.5 184)" stroke="#717783"/><path stroke="#000F2E" stroke-width="3" stroke-linecap="round" d="M352.263 305.5h-91.441m111.678 0h-8.805m-38.415 30H176.5m189.254 28h-74.576m-23.678 0h-12"/><path fill="#717783" d="M1 472h996v2H1z"/><path d="M828.631 524.547l-.021-86.933c-.001-5.398-5.855-8.764-10.52-6.048l-74.944 43.61c-5.707 3.32-4.065 11.97 2.461 12.969l40.314 6.171a7.002 7.002 0 0 1 4.391 2.527l25.869 32.098c4.144 5.143 12.452 2.211 12.45-4.394z" fill="#000" stroke="#000" stroke-width="2"/><path stroke="#CCCFD5" stroke-width="3" stroke-linecap="round" d="M742.5 453.5h-53m65 0h-4m-24 30h-87m111 28h-43m-15 0h-7"/><path d="M317.79 64.5c-1.225-29.41 4.963-50.155 19.457-58.399 44.047-25.05 148.113 74.835 232.438 223.101 84.326 148.266 116.979 288.768 72.933 313.819-25.851 14.702-72.376-13.63-123.45-69.521" stroke="#CCCFD5" stroke-width="2" stroke-dasharray="1 15"/><path d="M58.545 164.326l10.676-15.202 4.384 18.051.155.64.575-.321 16.215-9.065-3.883 18.167-.138.643.657-.04 18.543-1.132-11.38 14.683-.404.52.61.249 17.196 7.026-16.623 8.291-.59.294.442.488 12.445 13.792-18.575.257-.658.009.186.631 5.229 17.826-16.847-7.828-.597-.277-.107.649-3.023 18.329-11.782-14.362-.418-.509-.378.539-10.676 15.202-4.384-18.051-.155-.64-.575.321-16.215 9.065 3.883-18.166.137-.644-.657.04-18.542 1.132 11.38-14.683.404-.52-.61-.249-17.197-7.026 16.624-8.291.59-.294-.442-.488-12.445-13.792 18.575-.257.658-.009-.186-.631-5.229-17.826 16.847 7.828.597.277.107-.649 3.023-18.329 11.782 14.362.417.509.379-.539z" fill="#E48038" stroke="#000"/><path d="M48.025 186.493c-.339-1.266-1.4-1.592-2.558-1.282l-1.807.484 1.786 6.665.724-.194-.797-2.975.792-.212 2.642 2.48.899-.24-2.793-2.503c.866-.439 1.379-1.228 1.112-2.223zm-2.673-.589c.84-.225 1.668-.188 1.932.798.28 1.043-.514 1.442-1.374 1.672l-.705.189-.655-2.444.802-.215zm8.602 3.483l-.423-.342s-.484.74-1.373.978c-.966.259-1.79-.224-2.05-1.159l3.574-.957s-.028-.221-.072-.385c-.334-1.246-1.434-1.914-2.68-1.58-1.352.362-1.95 1.651-1.605 2.936.39 1.458 1.535 2.135 2.868 1.778.888-.238 1.478-.665 1.761-1.269zm-1.112-1.835l-2.87.769c-.13-.721.179-1.539 1.09-1.772.997-.257 1.609.366 1.78 1.003zM57.985 189l.705-.189-.712-2.656c-.341-1.275-1.095-1.808-2.418-1.453a3.44 3.44 0 0 0-1.494.876l.378.447c.102-.12.571-.536 1.247-.717.686-.184 1.288.017 1.493.78l.054.203-1.21.387c-1.222.389-1.647 1.083-1.44 1.856.223.83 1.066 1.194 1.926.964.86-.23 1.179-.854 1.3-1.094l.17.596zm-.597-2.19l.287 1.072c-.135.347-.551.842-1.17 1.007-.579.156-1.054-.11-1.175-.564-.125-.464.065-.877.895-1.141l1.163-.374zm6.118.711l.695-.186-1.785-6.665-.715.191.779 2.908-.02.005c-.473-.453-1.167-.609-1.862-.422-1.333.357-1.93 1.604-1.571 2.947.365 1.362 1.414 2.147 2.795 1.777.763-.205 1.281-.706 1.465-1.335l.01-.002.209.782zm-1.705-.102c-.995.266-1.786-.371-2.048-1.346-.264-.985.12-1.875 1.114-2.141 1.005-.27 1.764.324 2.028 1.309.262.976-.089 1.908-1.094 2.178zm5.008-.783l-.093.656c-.096.689-.257.742-.489.804-.203.055-.483.016-.483.016l.019.647s.34.074.746-.034c.483-.13.733-.435.858-1.359l.778-5.943-.746.189-.438 4.124-2.467-3.335-.746.189 3.06 4.046zm-13.834 16.213l-.439.726c.57.506 1.657 1.084 2.874.758 1.553-.416 2.419-1.592 2.04-3.006-.308-1.148-1.233-1.496-2.319-1.652l-1.214-.172c-.592-.077-1.255-.235-1.479-1.07-.211-.788.34-1.42 1.198-1.65.846-.227 1.5.083 1.957.395l.354-.716a2.898 2.898 0 0 0-2.467-.445c-1.228.33-2.268 1.366-1.907 2.71.26.974.87 1.444 1.866 1.587l1.319.194c.829.125 1.61.351 1.833 1.186.242.904-.316 1.6-1.278 1.858-.858.23-1.847-.263-2.338-.703zm10.771-1.731l-.508-.41s-.581.888-1.648 1.174c-1.159.311-2.147-.269-2.46-1.391l4.29-1.149s-.034-.264-.087-.461c-.4-1.495-1.721-2.297-3.216-1.896-1.623.435-2.34 1.981-1.926 3.522.468 1.75 1.842 2.563 3.441 2.134 1.067-.286 1.774-.798 2.114-1.523zm-1.335-2.201l-3.443.922c-.157-.865.214-1.846 1.306-2.126 1.197-.309 1.932.439 2.137 1.204zm5.324 1.902l-.232-.683s-.233.199-.569.289c-.255.069-.482.055-.612-.059-.243-.209-.345-.591-.463-1.031l-.748-2.794 1.344-.36-.192-.719-1.334.357-.45-1.68-.87.233.451 1.68-.811.218.192.718.812-.217.702 2.619c.264.986.59 2.203 1.888 1.855.37-.099.668-.241.892-.426z" fill="#F2F3F5"/><path d="M62.504 217.297l-1.037-3.868-4.097 1.098.446 1.664 1.96-.526.37 1.38s-.273.711-1.788 1.116c-1.514.406-2.998-.37-3.505-2.264-.508-1.893.362-3.3 1.863-3.702 1.271-.341 2.172.099 2.68.427l1.11-1.645c-.385-.245-1.8-1.257-4.276-.594-2.61.699-4.428 2.998-3.595 6.109.834 3.11 3.562 4.205 6.145 3.513 2.57-.688 3.363-2.162 3.724-2.708zm7.9-4.117c-.577-2.15-2.514-3.051-4.624-2.486s-3.35 2.318-2.774 4.468c.576 2.15 2.524 3.034 4.633 2.469 2.11-.565 3.34-2.301 2.764-4.451zm-2.189.543c.265.987-.104 1.883-1.05 2.137-.96.257-1.714-.338-1.979-1.325-.264-.988.09-1.88 1.05-2.137.947-.254 1.715.338 1.98 1.325zm4.25-7.545l-2.272.609 1.922 6.413 1.88-.504-1.53-6.518zm2.364 8.28c-.196-.73-.84-1.021-1.583-.822-.757.203-1.169.777-.973 1.507.196.73.839 1.022 1.596.819.744-.199 1.156-.773.96-1.504z" fill="#000F2E"/><path d="M417.793 300.013l.433.25.25-.433 8.903-15.422c1.988-3.443 4.748-6.427 8.426-7.602 12.318-3.933 26.137 1.08 32.866 12.736l33.939 58.782-23.908 13.804-31.726-54.95-.433-.75-.433.75-3.697 6.404c-7.678 13.299-24.582 17.949-37.959 10.534l.128-.222-.527-.218a28.378 28.378 0 0 1-3.344-1.648l-30.704-17.727 13.803-23.908 33.983 19.62z" fill="#fff" stroke="#717783"/><path d="M341.257 339.841l38.026-65.862-1.531-.884a8 8 0 0 0-10.928 2.928l-30.026 52.006a8 8 0 0 0 2.928 10.928l1.531.884z" fill="#000F2E"/><path d="M341.944 339.652a19.124 19.124 0 0 0 23.724-4.452l13.114-15.496a10.48 10.48 0 0 0 2.217-9.106l-.729-3.189a23.865 23.865 0 0 1 4.583-20.17l.812-1.022c2.289-2.879 1.483-7.12-1.702-8.959l-4.497-2.596-37.522 64.99z" fill="#fff" stroke="#000F2E"/><path d="M545.278 331.921l-65.862 38.025.884 1.532a8 8 0 0 0 10.928 2.928l52.006-30.026a8 8 0 0 0 2.928-10.928l-.884-1.531z" fill="#000F2E"/><path d="M544.59 331.741a19.124 19.124 0 0 0-22.772-8.006l-19.105 6.862a10.482 10.482 0 0 0-6.473 6.779l-.963 3.125a23.863 23.863 0 0 1-14.054 15.176l-1.214.479c-3.422 1.349-4.845 5.425-3.006 8.611l2.596 4.496 64.991-37.522zm69.592-147.831l150.74 40.391-13.844 51.666-128.041-34.308c-12.536-3.359-19.976-16.245-16.617-28.782l7.762-28.967z" fill="#fff" stroke="#000F2E"/><path d="M606.207 213.674l10.023-37.406c3.359-12.536 16.245-19.976 28.781-16.617l64.262 17.219-7.264 27.11c-3.359 12.536-16.244 19.976-28.781 16.617l-.11-.03-.111-.029-.111-.03-.111-.03-.112-.03-.111-.029-.111-.03-.112-.03-.112-.03-.112-.03-.112-.03-.112-.03-.112-.03-.112-.03-.113-.03-.112-.031-.113-.03-.113-.03-.113-.03-.113-.031-.113-.03-.113-.03-.113-.031-.114-.03-.113-.03-.114-.031-.114-.03-.114-.031-.114-.03-.114-.031-.114-.031-.114-.03-.115-.031-.114-.031-.115-.03-.114-.031-.115-.031-.115-.031-.115-.03-.115-.031-.115-.031-.115-.031-.116-.031-.115-.031-.115-.031-.116-.031-.116-.031-.115-.031-.116-.031-.116-.031-.116-.031-.116-.031-.116-.031-.116-.031-.117-.031-.116-.031-.116-.032-.117-.031-.116-.031-.117-.031-.117-.032-.117-.031-.116-.031-.117-.031-.117-.032-.117-.031-.117-.032-.118-.031-.117-.031-.117-.032-.117-.031-.118-.032-.117-.031-.118-.032-.117-.031-.118-.032-.118-.031-.117-.032-.118-.031-.118-.032-.118-.031-.118-.032-.118-.032-.118-.031-.118-.032-.118-.032-.118-.031-.118-.032-.118-.032-.118-.031-.119-.032-.118-.032-.118-.031-.119-.032-.118-.032-.119-.031-.118-.032-.119-.032-.118-.032-.119-.032-.118-.031-.119-.032-.119-.032-.118-.032-.119-.031-.119-.032-.119-.032-.118-.032-.119-.032-.119-.032-.119-.031-.119-.032-.118-.032-.119-.032-.119-.032-.119-.032-.119-.032-.119-.031-.119-.032-.119-.032-.119-.032-.118-.032-.119-.032-.119-.032-.119-.031-.119-.032-.119-.032-.119-.032-.119-.032-.119-.032-.119-.032-.119-.032-.119-.031-.119-.032-.118-.032-.119-.032-.119-.032-.119-.032-.119-.032-.119-.031-.119-.032-.118-.032-.119-.032-.119-.032-.119-.032-.118-.031-.119-.032-.119-.032-.119-.032-.118-.032-.119-.031-.118-.032-.119-.032-.119-.032-.118-.031-.119-.032-.118-.032-.118-.032-.119-.031-.118-.032-.118-.032-.119-.031-.118-.032-.118-.032-.118-.031-.118-.032-.118-.032-.118-.031-.118-.032-.118-.032-.118-.031-.118-.032-.118-.031-.118-.032-.117-.031-.118-.032-.118-.031-.117-.032-.118-.031-.117-.032-.117-.031-.118-.032-.117-.031-.117-.032-.117-.031-.117-.031-.117-.032-.117-.031-.117-.031-.117-.032-.117-.031-.117-.031-.116-.031-.117-.032-.116-.031-.117-.031-.116-.031-.116-.031-.116-.031-.116-.032-.116-.031-.116-.031-.116-.031-.116-.031-.116-.031-.115-.031-.116-.031-.115-.031-.116-.031-.115-.03-.115-.031-.115-.031-.115-.031-.115-.031-.115-.031-.115-.03-.114-.031-.115-.031-.114-.03-.115-.031-.114-.031-.114-.03-.114-.031-.114-.03-.114-.031-.114-.03-.113-.031-.114-.03-.113-.031-.114-.03-.113-.03-.113-.031-.113-.03-.113-.03-.112-.03-.113-.03-.113-.031-.112-.03-.112-.03-.113-.03-.112-.03-.112-.03-.111-.03-.112-.03-.112-.03-.111-.03-.111-.029-.112-.03-.111-.03-.111-.03-.11-.029-.111-.03-.111-.03-.11-.029-.11-.03-.11-.029-.11-.03-.11-.029-.11-.03-.11-.029-.109-.029-.109-.03-.11-.029-.109-.029-.108-.029-.109-.029-.109-.029-.108-.029-.108-.029-.109-.029-.108-.029-.107-.029-.108-.029-.108-.029-.107-.029-.107-.028-.107-.029-.107-.029-.107-.028-.106-.029-.107-.028-.106-.029-.106-.028-.106-.029-.106-.028-.106-.028-.105-.029-.105-.028-.105-.028-.105-.028-.105-.028-.105-.028-.104-.028-.104-.028-.104-.028-.104-.028-.104-.028-.103-.027-.104-.028-.103-.028-.103-.027-.103-.028-.102-.027-.103-.028-.102-.027-.102-.027-.102-.028-.101-.027-.102-.027-.101-.027-.101-.027-.101-.027-.101-.027-.1-.027-.101-.027-.1-.027-.1-.027-.099-.027-.1-.026-.099-.027-.099-.026-.099-.027-.099-.026-.099-.027-.098-.026-.098-.026-.098-.027-.097-.026-.098-.026-.097-.026-.097-.026-.097-.026-.096-.026-.097-.026-.096-.025-.096-.026-.096-.026-.095-.025-.095-.026-.095-.025-.095-.026-.095-.025-.094-.025-.094-.026-.094-.025-.094-.025-.093-.025-.094-.025-.093-.025-.092-.025-.093-.024-.092-.025-.092-.025-.092-.024-.092-.025-.091-.024-.091-.025-.091-.024-.091-.024-.09-.025-.09-.024-.09-.024-.09-.024-.089-.024-.089-.024-.089-.024-.089-.023-.088-.024-.088-.024-.088-.023-.088-.024-.087-.023-.087-.023-.087-.024-.086-.023-.087-.023-.086-.023-.086-.023-.085-.023-.085-.023-.085-.023-.085-.022-.085-.023-.084-.022-.084-.023-.083-.022-.084-.023-.083-.022-.083-.022-.082-.022-.083-.022-.082-.022-.081-.022-.082-.022-.081-.022-.081-.021-.08-.022-.081-.022-.08-.021-.08-.021-.079-.022-.079-.021-.079-.021-.079-.021-.078-.021-.078-.021-.078-.021-.077-.02-.077-.021-.077-.021-.077-.02-.076-.021-.076-.02-.075-.02-.076-.02-.075-.021-.074-.02-.075-.02-.074-.019-.074-.02-.073-.02-.074-.019-.072-.02-.073-.019-.072-.02-.072-.019-.072-.019-.071-.019-.071-.019-.071-.019-.07-.019-.07-.019-.07-.019-.069-.018-.069-.019-.069-.018-.069-.019-.068-.018-.068-.018-.067-.018-.067-.018-.067-.018-.066-.018-.067-.017-.065-.018-.066-.018-.065-.017-.065-.017-.064-.018-.064-.017-.064-.017-.063-.017-.064-.017-.062-.017-.063-.016-.062-.017-.062-.017-.061-.016-.061-.016-.061-.017-.06-.016-.06-.016-.06-.016-.059-.016-.059-.016-.058-.015-.059-.016-.057-.015-.058-.016-.057-.015-.057-.015-.056-.015-.056-.015-.056-.015-.055-.015-.055-.015-.055-.014-.054-.015-.054-.014-.053-.015-.053-.014-.053-.014-.053-.014-.052-.014-.051-.014-.051-.014-.051-.013-.051-.014-.05-.013-.05-.014-.049-.013-.049-.013-.049-.013-.048-.013-.048-.013-.047-.012-.047-.013-.047-.012-.046-.013-.046-.012-.045-.012-.045-.012-.045-.012-.044-.012-.044-.012-.044-.012-.043-.011-.043-.012-.042-.011-.042-.011-.041-.011-.041-.011c-6.098-1.634-10.699.759-13.741 3.524a21.503 21.503 0 0 0-2.777 3.085z" fill="#06C569" stroke="#717783"/><path d="M655.101 163.442L638.103 134l54.528 14.611c12.803 3.43 20.401 16.59 16.971 29.393l-7.892 29.451s-.508-6.773-6.7-8.432l-69.351-18.583 29.442-16.998z" fill="#fff" stroke="#000F2E"/><path d="M774.883 196.486a8.335 8.335 0 0 0 3.05-16.337 8.334 8.334 0 0 0-4.926 15.91l-45.302 169.067 1.858.498 45.32-169.138z" fill="#000F2E"/><defs><clipPath id="a"><path fill="#fff" transform="translate(144 447)" d="M0 0h710v25H0z"/></clipPath></defs></svg>