<svg width="25" height="24" viewBox="0 0 25 24" fill="none" xmlns="http://www.w3.org/2000/svg"><path d="M15.507 11.25h-1.843v-1.5c0-.774.064-1.261 1.198-1.261h.666a.759.759 0 0 0 .767-.75v-.941a.759.759 0 0 0-.708-.754C15.124 6.014 14.66 6 14.195 6c-2.08 0-3.6 1.243-3.6 3.524v1.726H9.063a.759.759 0 0 0-.767.75v1.5c0 .414.344.75.767.75h1.534v6c0 .414.343.75.767.75h1.534a.759.759 0 0 0 .767-.75v-6.002l1.667-.001a.76.76 0 0 0 .761-.665l.176-1.497a.756.756 0 0 0-.761-.835z" fill="#F2F3F5"/><path d="M3.295 11c0-3.771 0-5.657 1.171-6.828C5.638 3 7.524 3 11.295 3h2c3.771 0 5.657 0 6.828 1.172 1.172 1.171 1.172 3.057 1.172 6.828v2c0 3.771 0 5.657-1.172 6.828C18.952 21 17.066 21 13.295 21h-2c-3.771 0-5.657 0-6.829-1.172C3.295 18.657 3.295 16.771 3.295 13v-2z" stroke="#F2F3F5" stroke-width="2"/></svg>