<svg width="996" height="180" viewBox="0 0 996 180" fill="none" xmlns="http://www.w3.org/2000/svg"><g opacity=".05"><path d="M-191.812-403.515L1171.7 362.601m-1363.512 0L1171.7-403.515m-681.34 0l681.76 766.116m-681.76 0l681.76-766.116m-1364.348 0l681.756 766.116m-681.756 0l681.756-766.116" stroke="#000" stroke-linecap="square"/><path d="M17.654 57.815v-1.631h-1.705v.48h1.132v.932s-.31.383-1.18.383c-.877 0-1.565-.62-1.565-1.655 0-1.035.663-1.656 1.528-1.656.657 0 1.047.304 1.296.596l.402-.37c-.158-.165-.62-.731-1.698-.731-1.193 0-2.137.852-2.137 2.16 0 1.31.944 2.174 2.143 2.174 1.193 0 1.704-.603 1.784-.682z" fill="#000"/><path d="M-192.207 673.622l479.414-1077.82m-.415.288L765.918 673.91m-479.126 0L765.918-403.91m1.874 0L1245.92 673.91m-478.128 0L1245.92-403.91m-478.998-.59v1080m-480.051-1080v1080m236.969-1080v1080m-478-1080v1080" stroke="#000" stroke-linecap="square"/></g></svg>