<svg width="25" height="24" viewBox="0 0 25 24" fill="none" xmlns="http://www.w3.org/2000/svg"><path d="M3.295 11c0-3.771 0-5.657 1.171-6.828C5.638 3 7.524 3 11.295 3h2c3.771 0 5.657 0 6.828 1.172 1.172 1.171 1.172 3.057 1.172 6.828v2c0 3.771 0 5.657-1.172 6.828C18.952 21 17.066 21 13.295 21h-2c-3.771 0-5.657 0-6.829-1.172C3.295 18.657 3.295 16.771 3.295 13v-2z" stroke="#F2F3F5" stroke-width="2"/><circle cx="16.795" cy="7.5" r="1.5" fill="#F2F3F5"/><circle cx="12.295" cy="12" r="3" stroke="#F2F3F5" stroke-width="2"/></svg>