<svg width="413" height="452" viewBox="0 0 413 452" fill="none" xmlns="http://www.w3.org/2000/svg"><g clip-path="url(#a)"><path d="M167.557 370.683c-11.829 0-17.679-17.674-17.914-27.202-1.918-77.588-70.74-65.412-70.74-154.327 0-70.261 56.958-127.22 127.221-127.22 70.261 0 127.22 56.959 127.22 127.22 0 88.915-68.822 76.739-70.74 154.327-.235 9.528-7.548 27.202-17.915 27.202h-77.132zm-7.901 30.435h92.93m-92.93 25.441h92.93M170.776 452h70.691M206.124 44.304V0m76.294 61.557l22.627-39.19m35.987 93.444l40.009-23.102m-15.945 100.998h47.144m-65.686 81.072l41.648 24.045M129.822 61.557l-22.626-39.19m-35.987 93.444l-40.01-23.102m15.946 100.998H0m65.686 81.072l-41.648 24.045" stroke="#CCC" stroke-width="1.5" stroke-miterlimit="2.613" stroke-linecap="round" stroke-linejoin="round"/><path fill="url(#b)" d="M0 218h412v244H0z"/></g><defs><linearGradient id="b" x1="206" y1="218" x2="206" y2="462" gradientUnits="userSpaceOnUse"><stop stop-color="#fff" stop-opacity="0"/><stop offset=".901" stop-color="#fff"/></linearGradient><clipPath id="a"><path fill="#fff" d="M0 0h412.24v452H0z"/></clipPath></defs></svg>