<svg width="25" height="24" viewBox="0 0 25 24" fill="none" xmlns="http://www.w3.org/2000/svg"><path d="M8.904 17a1 1 0 0 1-1 1h-.61a1 1 0 0 1-1-1v-6.182a1 1 0 0 1 1-1h.61a1 1 0 0 1 1 1V17zM7.6 8.727c-.722 0-1.305-.611-1.305-1.364C6.295 6.61 6.879 6 7.6 6c.719 0 1.304.611 1.304 1.363 0 .753-.585 1.364-1.304 1.364zm10.695 8.274a1 1 0 0 1-1 .999h-.508a1 1 0 0 1-1-1v-2.982c0-.95-.017-2.17-1.304-2.17-1.306 0-1.507 1.034-1.507 2.101V17a1 1 0 0 1-1 1h-.507a1 1 0 0 1-1-1v-6.188a1 1 0 0 1 1-1h.848c.309 0 .56.25.56.56v.538c0 .011.009.02.02.02a.021.021 0 0 0 .019-.01c.339-.64 1.155-1.311 2.368-1.311 1.5 0 2.277.59 2.663 1.526.34.824.348 3.898.348 4.789V17z" fill="#F2F3F5"/><path d="M3.295 11c0-3.771 0-5.657 1.171-6.828C5.638 3 7.524 3 11.295 3h2c3.771 0 5.657 0 6.828 1.172 1.172 1.171 1.172 3.057 1.172 6.828v2c0 3.771 0 5.657-1.172 6.828C18.952 21 17.066 21 13.295 21h-2c-3.771 0-5.657 0-6.829-1.172C3.295 18.657 3.295 16.771 3.295 13v-2z" stroke="#F2F3F5" stroke-width="2"/></svg>