<svg width="200" height="36" viewBox="0 0 200 36" fill="none" xmlns="http://www.w3.org/2000/svg"><path d="M154.312 1.998h2.438v24.047h-2.438v-4.31c-.581 1.341-1.533 2.443-2.856 3.303-1.323.86-2.88 1.29-4.667 1.29-1.742 0-3.304-.413-4.685-1.237-1.382-.825-2.462-1.991-3.239-3.498-.778-1.508-1.167-3.252-1.167-5.23 0-1.979.395-3.716 1.184-5.212.79-1.495 1.875-2.65 3.257-3.463 1.381-.812 2.943-1.219 4.684-1.219 1.672 0 3.181.412 4.528 1.237 1.302.797 2.268 1.825 2.897 3.084l.064.131V1.998zm-7.071 6.627c-1.346 0-2.554.306-3.622.918-1.068.613-1.91 1.502-2.525 2.668-.615 1.166-.923 2.55-.923 4.152 0 1.578.308 2.962.923 4.152s1.457 2.096 2.525 2.72c1.068.625 2.276.937 3.622.937 1.301 0 2.491-.318 3.57-.954 1.08-.636 1.934-1.543 2.561-2.72.626-1.179.94-2.545.94-4.1 0-1.554-.314-2.92-.94-4.099-.627-1.177-1.481-2.084-2.561-2.72-1.079-.637-2.269-.954-3.57-.954z" fill="#000F2E"/><path d="M154.312 1.998h2.438v24.047h-2.438v-4.31c-.581 1.341-1.533 2.443-2.856 3.303-1.323.86-2.88 1.29-4.667 1.29-1.742 0-3.304-.413-4.685-1.237-1.382-.825-2.462-1.991-3.239-3.498-.778-1.508-1.167-3.252-1.167-5.23 0-1.979.395-3.716 1.184-5.212.79-1.495 1.875-2.65 3.257-3.463 1.381-.812 2.943-1.219 4.684-1.219 1.672 0 3.181.412 4.528 1.237 1.302.797 2.268 1.825 2.897 3.084l.064.131V1.998zm-7.071 6.627c-1.346 0-2.554.306-3.622.918-1.068.613-1.91 1.502-2.525 2.668-.615 1.166-.923 2.55-.923 4.152 0 1.578.308 2.962.923 4.152s1.457 2.096 2.525 2.72c1.068.625 2.276.937 3.622.937 1.301 0 2.491-.318 3.57-.954 1.08-.636 1.934-1.543 2.561-2.72.626-1.179.94-2.545.94-4.1 0-1.554-.314-2.92-.94-4.099-.627-1.177-1.481-2.084-2.561-2.72-1.079-.637-2.269-.954-3.57-.954zm36.903-6.627v4.62h5.225v2.219h-5.225v9.618h.009v3.003c0 1.277 1.003 2.318 2.254 2.354l.068.001h2.894v2.516h-2.894a4.767 4.767 0 0 1-3.364-1.395 4.906 4.906 0 0 1-1.438-3.387v-.733h-.002V1.998h2.473z" fill="#000F2E"/><path d="M184.144 1.998v4.62h5.225v2.219h-5.225v9.618h.009v3.003c0 1.277 1.003 2.318 2.254 2.354l.068.001h2.894v2.516h-2.894a4.767 4.767 0 0 1-3.364-1.395 4.906 4.906 0 0 1-1.438-3.387v-.733h-.002V1.998h2.473zm10.631 0v16.458h.009v3.002c0 1.278 1.003 2.318 2.254 2.355H200v2.517h-2.893a4.768 4.768 0 0 1-3.365-1.396 4.905 4.905 0 0 1-1.437-3.387l-.001-.089v-.643h-.002V1.998h2.473z" fill="#000F2E"/><path d="M194.775 1.998v16.458h.009v3.002c0 1.278 1.003 2.318 2.254 2.355H200v2.517h-2.893a4.768 4.768 0 0 1-3.365-1.396 4.905 4.905 0 0 1-1.437-3.387l-.001-.089v-.643h-.002V1.998h2.473zm-26.528 4.471c1.788 0 3.344.424 4.668 1.272 1.323.848 2.275 1.92 2.856 3.216V8.59c0-1.522 1.306-2.12 2.438-1.972v19.52c0 1.767-.378 3.333-1.132 4.7-.493.893-.893 1.495-1.632 2.116-.39.327-.876.661-1.52 1.046-1.243.742-3.482 1.113-6.716 1.113v-2.155c2.67 0 4.478-.265 5.427-.795.653-.366 1.074-.672 1.392-.998.374-.383.606-.791.907-1.352.557-1.037.836-2.262.836-3.675v-4.369c-.604 1.32-1.562 2.409-2.874 3.269-1.312.86-2.862 1.29-4.65 1.29-1.741 0-3.303-.413-4.684-1.237-1.382-.825-2.462-1.991-3.24-3.498-.778-1.508-1.166-3.252-1.166-5.23 0-1.979.388-3.716 1.166-5.212.778-1.495 1.858-2.65 3.239-3.463 1.382-.812 2.944-1.219 4.685-1.219zm.453 2.156c-1.347 0-2.554.306-3.622.918-1.068.613-1.91 1.502-2.526 2.668-.615 1.166-.923 2.55-.923 4.152 0 1.578.308 2.962.923 4.152.616 1.19 1.458 2.096 2.526 2.72 1.068.625 2.275.937 3.622.937 1.301 0 2.491-.318 3.571-.954 1.079-.636 1.933-1.543 2.559-2.72.627-1.179.941-2.545.941-4.1 0-1.554-.314-2.92-.941-4.099-.626-1.177-1.48-2.084-2.559-2.72-1.08-.637-2.27-.954-3.571-.954z" fill="#000F2E"/><path d="M168.247 6.469c1.788 0 3.344.424 4.668 1.272 1.323.848 2.275 1.92 2.856 3.216V8.59c0-1.522 1.306-2.12 2.438-1.972v19.52c0 1.767-.378 3.333-1.132 4.7-.493.893-.893 1.495-1.632 2.116-.39.327-.876.661-1.52 1.046-1.243.742-3.482 1.113-6.716 1.113v-2.155c2.67 0 4.478-.265 5.427-.795.653-.366 1.074-.672 1.392-.998.374-.383.606-.791.907-1.352.557-1.037.836-2.262.836-3.675v-4.369c-.604 1.32-1.562 2.409-2.874 3.269-1.312.86-2.862 1.29-4.65 1.29-1.741 0-3.303-.413-4.684-1.237-1.382-.825-2.462-1.991-3.24-3.498-.778-1.508-1.166-3.252-1.166-5.23 0-1.979.388-3.716 1.166-5.212.778-1.495 1.858-2.65 3.239-3.463 1.382-.812 2.944-1.219 4.685-1.219zm.453 2.156c-1.347 0-2.554.306-3.622.918-1.068.613-1.91 1.502-2.526 2.668-.615 1.166-.923 2.55-.923 4.152 0 1.578.308 2.962.923 4.152.616 1.19 1.458 2.096 2.526 2.72 1.068.625 2.275.937 3.622.937 1.301 0 2.491-.318 3.571-.954 1.079-.636 1.933-1.543 2.559-2.72.627-1.179.941-2.545.941-4.1 0-1.554-.314-2.92-.941-4.099-.626-1.177-1.48-2.084-2.559-2.72-1.08-.637-2.27-.954-3.571-.954zM45.788 6.53c2.745 0 4.598.931 5.558 2.792C52.8 7.084 55 6.233 57.948 6.77v19.17h-6.603v-2.666c-.516.89-1.252 1.595-2.206 2.12-.954.524-2.071.785-3.352.785-1.504 0-2.868-.399-4.092-1.195-1.224-.798-2.19-1.943-2.897-3.435-.707-1.492-1.06-3.23-1.06-5.212 0-1.982.353-3.713 1.061-5.194.707-1.48 1.673-2.618 2.897-3.416 1.223-.798 2.588-1.196 4.092-1.196zm2.123 5.844c-.989 0-1.809.347-2.46 1.042-.65.695-.977 1.668-.977 2.921 0 1.23.326 2.204.977 2.922s1.471 1.076 2.46 1.076c.965 0 1.779-.353 2.44-1.059.663-.706.995-1.686.995-2.939 0-1.23-.33-2.198-.994-2.904-.662-.706-1.476-1.06-2.441-1.06z" fill="#000F2E"/><path d="M45.788 6.53c2.745 0 4.598.931 5.558 2.792C52.8 7.084 55 6.233 57.948 6.77v19.17h-6.603v-2.666c-.516.89-1.252 1.595-2.206 2.12-.954.524-2.071.785-3.352.785-1.504 0-2.868-.399-4.092-1.195-1.224-.798-2.19-1.943-2.897-3.435-.707-1.492-1.06-3.23-1.06-5.212 0-1.982.353-3.713 1.061-5.194.707-1.48 1.673-2.618 2.897-3.416 1.223-.798 2.588-1.196 4.092-1.196zm2.123 5.844c-.989 0-1.809.347-2.46 1.042-.65.695-.977 1.668-.977 2.921 0 1.23.326 2.204.977 2.922s1.471 1.076 2.46 1.076c.965 0 1.779-.353 2.44-1.059.663-.706.995-1.686.995-2.939 0-1.23-.33-2.198-.994-2.904-.662-.706-1.476-1.06-2.441-1.06zm54.016-5.844c2.746 0 4.598.931 5.558 2.792 1.454-2.238 3.655-3.089 6.602-2.552v19.17h-6.602v-2.666c-.517.89-1.252 1.595-2.206 2.12-.954.524-2.072.785-3.352.785-1.504 0-2.868-.399-4.092-1.195-1.224-.798-2.189-1.943-2.897-3.435-.707-1.492-1.061-3.23-1.061-5.211 0-1.982.354-3.713 1.061-5.194.707-1.48 1.673-2.62 2.897-3.417 1.224-.797 2.588-1.195 4.092-1.195V6.53zm2.123 5.844c-.989 0-1.808.347-2.46 1.042-.651.695-.976 1.668-.976 2.921 0 1.23.325 2.204.976 2.922.652.718 1.471 1.076 2.46 1.076.965 0 1.779-.353 2.441-1.059.663-.706.994-1.686.994-2.939 0-1.23-.331-2.198-.993-2.904-.663-.706-1.477-1.06-2.443-1.06h.001z" fill="#000F2E"/><path d="M101.927 6.53c2.746 0 4.598.931 5.558 2.792 1.454-2.238 3.655-3.089 6.602-2.552v19.17h-6.602v-2.666c-.517.89-1.252 1.595-2.206 2.12-.954.524-2.072.785-3.352.785-1.504 0-2.868-.399-4.092-1.195-1.224-.798-2.189-1.943-2.897-3.435-.707-1.492-1.061-3.23-1.061-5.211 0-1.982.354-3.713 1.061-5.194.707-1.48 1.673-2.62 2.897-3.417 1.224-.797 2.588-1.195 4.092-1.195V6.53zm2.123 5.844c-.989 0-1.808.347-2.46 1.042-.651.695-.976 1.668-.976 2.921 0 1.23.325 2.204.976 2.922.652.718 1.471 1.076 2.46 1.076.965 0 1.779-.353 2.441-1.059.663-.706.994-1.686.994-2.939 0-1.23-.331-2.198-.993-2.904-.663-.706-1.477-1.06-2.443-1.06h.001zM66.825 25.94V15.653c0-1.025.281-1.822.842-2.392.562-.57 1.337-.854 2.325-.854.965 0 1.723.285 2.273.854.55.57.825 1.367.825 2.392V25.94h6.603V15.654c0-1.025.28-1.822.841-2.392.562-.57 1.325-.854 2.291-.854.965 0 1.73.285 2.29.854.562.57.842 1.367.842 2.392V25.94h6.602V14.766c0-2.528-.68-4.522-2.038-5.98C89.162 7.328 87.294 6.6 84.913 6.6c-1.325 0-2.537.325-3.638.975a7.857 7.857 0 0 0-2.66 2.545 6.686 6.686 0 0 0-2.577-2.597c-1.09-.615-2.33-.923-3.722-.923-1.213 0-2.285.246-3.217.735A6.387 6.387 0 0 0 66.826 9.3V6.77h-6.602v19.17h6.602z" fill="#000F2E"/><path d="M66.825 25.94V15.653c0-1.025.281-1.822.842-2.392.562-.57 1.337-.854 2.325-.854.965 0 1.723.285 2.273.854.55.57.825 1.367.825 2.392V25.94h6.603V15.654c0-1.025.28-1.822.841-2.392.562-.57 1.325-.854 2.291-.854.965 0 1.73.285 2.29.854.562.57.842 1.367.842 2.392V25.94h6.602V14.766c0-2.528-.68-4.522-2.038-5.98C89.162 7.328 87.294 6.6 84.913 6.6c-1.325 0-2.537.325-3.638.975a7.857 7.857 0 0 0-2.66 2.545 6.686 6.686 0 0 0-2.577-2.597c-1.09-.615-2.33-.923-3.722-.923-1.213 0-2.285.246-3.217.735A6.387 6.387 0 0 0 66.826 9.3V6.77h-6.602v19.17h6.602zm55.851 0V15.653c0-1.094.281-1.954.842-2.58.561-.627 1.336-.94 2.324-.94.943 0 1.696.313 2.257.94.561.626.842 1.486.842 2.58V25.94h6.602V14.766c0-2.506-.64-4.493-1.92-5.963-1.28-1.47-3.009-2.204-5.187-2.204-1.28 0-2.414.268-3.402.804-.988.535-1.774 1.235-2.358 2.101V6.77h-6.602v19.17h6.602z" fill="#000F2E"/><path d="M122.676 25.94V15.653c0-1.094.281-1.954.842-2.58.561-.627 1.336-.94 2.324-.94.943 0 1.696.313 2.257.94.561.626.842 1.486.842 2.58V25.94h6.602V14.766c0-2.506-.64-4.493-1.92-5.963-1.28-1.47-3.009-2.204-5.187-2.204-1.28 0-2.414.268-3.402.804-.988.535-1.774 1.235-2.358 2.101V6.77h-6.602v19.17h6.602z" fill="#000F2E"/><path fill-rule="evenodd" clip-rule="evenodd" d="M22.439.5l14.827 28.688-6.288 6.236c-7.037-7-17.53-6.902-24.651 0L0 29.19 14.764.5h7.675zm-3.885 11.598l-4.989 9.99.217-.046a25.76 25.76 0 0 1 9.657-.157l.264.047-5.15-9.833h.001z" fill="#0045FF"/><path d="M18.982 18.26c5.744 0 10.519 1.376 15.27 5.058l3.014 5.872-6.398 6.234c-6.803-6.376-16.901-7.175-24.57.076L0 29.19l2.787-5.494c4.689-3.466 10.11-5.436 16.195-5.436z" fill="url(#a)"/><path fill-rule="evenodd" clip-rule="evenodd" d="M30.97 35.5l6.25-6.34a26.023 26.023 0 0 0-37.173 0l6.25 6.34a17.271 17.271 0 0 1 24.674 0z" fill="#0045FF"/><defs><radialGradient id="a" cx="0" cy="0" r="1" gradientUnits="userSpaceOnUse" gradientTransform="matrix(0 -24.0253 8.357 0 21.904 -17.427)"><stop/><stop offset="1" stop-color="#001A61" stop-opacity="0"/></radialGradient></defs></svg>