<svg width="22" height="20" viewBox="0 0 22 20" fill="none" xmlns="http://www.w3.org/2000/svg"><path fill-rule="evenodd" clip-rule="evenodd" d="M12.822 0l8.473 16.393-3.593 3.563c-4.021-4-10.017-3.943-14.087 0L0 16.394 8.437 0h4.385zm-2.22 6.628l-2.85 5.708.123-.026a14.72 14.72 0 0 1 5.519-.09l.15.027-2.942-5.619z" fill="#717783"/><path d="M10.847 10.148c3.282 0 6.01.787 8.725 2.89l1.723 3.356-3.656 3.563c-3.887-3.644-9.658-4.1-14.04.043L0 16.394l1.593-3.14c2.679-1.98 5.777-3.106 9.254-3.106z" fill="url(#a)"/><path fill-rule="evenodd" clip-rule="evenodd" d="M17.698 20l3.571-3.623a14.87 14.87 0 0 0-21.242 0L3.6 20a9.87 9.87 0 0 1 14.099 0z" fill="#717783"/><defs><radialGradient id="a" cx="0" cy="0" r="1" gradientUnits="userSpaceOnUse" gradientTransform="matrix(0 -13.7288 4.77543 0 12.517 -10.244)"><stop/><stop offset="1" stop-color="#001A61" stop-opacity="0"/></radialGradient></defs></svg>