<svg width="927" height="672" viewBox="0 0 927 672" fill="none" xmlns="http://www.w3.org/2000/svg"><path d="M463.709 671.552c-127.887 0-237.967-21.67-327.154-64.432C74.587 577.421.72 526.186.72 450.731c0-75.455 73.868-126.712 135.835-156.41C225.764 251.58 335.822 230 463.709 230c127.886 0 237.966 21.691 327.176 64.321 61.967 29.698 135.835 80.955 135.835 156.41s-73.868 126.69-135.835 156.389c-89.165 42.762-199.268 64.432-327.176 64.432zm0-439.445c-127.554 0-237.301 21.603-326.2 64.21C76.119 325.749 2.94 376.43 2.94 450.731c0 74.302 73.268 124.982 134.569 154.393 88.81 42.607 198.646 64.21 326.2 64.21 127.553 0 237.322-21.603 326.199-64.21C851.32 575.713 924.5 525.033 924.5 450.731c0-74.301-73.269-124.982-134.592-154.414-88.877-42.607-198.646-64.21-326.199-64.21z" fill="url(#a)"/><path d="M463.709 661.083c-121.271 0-226.111-20.627-311.59-61.349C45.169 548.721 22.722 490.588 22.722 450.731c0-39.856 22.447-98.056 129.397-149.002 85.479-40.722 190.319-61.371 311.59-61.371 122.247 0 227.087 20.649 311.612 61.371 59.036 28.434 129.396 77.362 129.396 149.002 0 71.64-70.36 120.569-129.396 149.003-84.525 40.722-189.365 61.349-311.612 61.349zm0-418.507c-120.937 0-225.467 20.582-310.636 61.149-105.906 50.436-128.13 107.793-128.13 147.006 0 39.214 22.202 96.548 128.13 147.007 85.169 40.566 189.699 61.127 310.636 61.127 121.914 0 226.465-20.561 310.657-61.127 58.459-28.168 128.131-76.52 128.131-147.007 0-70.487-69.672-118.838-128.131-147.006-84.236-40.567-188.766-61.149-310.657-61.149z" fill="url(#b)"/><path d="M463.709 650.636c-115.298 0-214.854-19.651-295.893-58.377-56.173-26.837-123.113-73.192-123.113-141.528 0-68.335 66.94-114.713 123.113-141.55 81.039-38.726 180.595-58.355 295.893-58.355 115.297 0 214.875 19.629 295.915 58.355 56.15 26.837 123.09 73.193 123.09 141.55 0 68.358-66.94 114.691-123.09 141.528-81.04 38.726-180.596 58.377-295.915 58.377zm0-397.592c-114.965 0-214.188 19.563-294.939 58.155-55.506 26.616-121.847 72.328-121.847 139.532 0 67.205 66.252 112.983 121.936 139.599 80.751 38.592 179.974 58.155 294.938 58.155 114.965 0 214.21-19.563 294.961-58.155 55.506-26.616 121.825-72.328 121.825-139.532 0-67.204-66.253-112.983-121.825-139.532-80.84-38.659-180.085-58.222-295.049-58.222z" fill="url(#c)"/><path d="M463.709 640.168c-110.036 0-204.397-18.587-280.485-55.25-53.152-25.64-116.496-69.666-116.496-134.187 0-64.52 63.366-108.68 116.519-134.208 76.088-36.641 170.448-55.228 280.484-55.228 109.303 0 203.663 18.587 280.506 55.228 96.293 45.956 116.519 98.344 116.519 134.208 0 35.865-20.226 88.253-116.519 134.187-76.865 36.663-171.292 55.25-280.528 55.25zm0-376.655c-109.703 0-203.753 18.498-279.53 55.006-52.575 25.329-115.231 68.845-115.231 132.212 0 63.368 62.678 106.862 115.253 132.191 75.8 36.508 169.827 55.028 279.53 55.028 108.97 0 203.02-18.52 279.552-55.028 95.248-45.446 115.253-96.969 115.253-132.191 0-35.221-19.982-86.766-115.253-132.212-76.555-36.486-170.604-55.006-279.574-55.006z" fill="url(#d)"/><path d="M463.709 629.699c-59.215 0-149.579-8.65-225.622-32.959-44.783-14.306-80.085-32.604-104.974-54.362-29.462-25.795-44.405-56.625-44.405-91.647 0-35.021 14.943-65.873 44.405-91.646 24.889-21.758 60.191-40.056 104.974-54.362 76.043-24.398 166.407-32.981 225.622-32.981 59.214 0 149.866 8.428 224.933 32.094 99.601 31.362 150.089 80.8 150.089 146.895 0 66.096-50.488 115.512-150.089 146.896-75.044 23.754-165.409 32.072-224.933 32.072zm0-355.739c-59.037 0-149.157 8.65-224.956 32.87-98.091 31.362-147.825 79.847-147.825 143.901 0 64.055 49.734 112.54 147.825 143.902 75.799 24.22 165.919 32.848 224.956 32.848 59.369 0 149.445-8.384 224.245-31.961 98.557-31.052 148.535-79.847 148.535-144.789s-49.978-113.737-148.535-144.788c-74.8-23.577-164.876-31.983-224.245-31.983z" fill="url(#e)"/><path d="M463.709 619.163c-55.84 0-141.009-8.184-212.612-31.051-93.25-29.854-140.408-76.076-140.408-137.514 0-61.437 47.247-107.593 140.408-137.513 71.603-22.934 156.772-31.052 212.612-31.052 55.839 0 141.274 7.941 211.9 30.209 93.65 29.543 141.142 76.076 141.142 138.312 0 62.236-47.492 108.68-141.142 138.312-70.626 22.446-155.773 30.297-211.9 30.297zm0-334.912c-55.662 0-140.587 8.14-211.923 31.052-92.141 29.521-138.877 75.033-138.877 135.295 0 60.262 46.625 105.797 138.877 135.296 71.336 22.845 156.261 31.051 211.923 31.051 55.661 0 140.83-7.918 211.234-30.119 92.607-29.211 139.587-75.034 139.587-136.183 0-61.15-46.98-106.995-139.587-136.205-70.404-22.091-155.284-30.009-211.234-30.009v-.178z" fill="url(#f)"/><path d="M463.709 608.783c-52.265 0-132.061-7.674-199.268-29.21-87.433-28.013-131.75-71.308-131.75-128.842 0-57.533 44.405-100.85 131.75-128.841 67.207-21.536 147.003-29.21 199.268-29.21 52.264 0 132.349 7.43 198.601 28.323 87.878 27.702 132.438 71.352 132.438 129.728 0 58.377-44.56 102.027-132.438 129.729-66.252 20.96-146.026 28.323-198.601 28.323zm0-313.886c-52.087 0-131.617 7.63-198.602 29.1-86.39 27.68-130.195 70.31-130.195 126.734 0 56.425 43.805 99.055 130.195 126.735 66.985 21.448 146.537 29.099 198.602 29.099s131.905-7.363 198.046-28.234c86.834-27.37 130.884-70.31 130.884-127.6 0-57.289-44.161-100.229-130.884-127.621-66.141-20.805-145.648-28.213-198.046-28.213z" fill="url(#g)"/><path d="M463.709 598.315c-48.846 0-123.446-7.142-186.08-27.193-81.594-26.127-122.957-66.538-122.957-120.391 0-53.852 41.408-93.975 123.068-120.191 62.967-20.206 137.345-27.392 185.969-27.392 48.623 0 123.201 7.186 186.101 27.392 81.572 26.194 122.935 66.539 122.935 120.191 0 53.653-41.319 94.286-122.824 120.391-62.567 20.051-137.212 27.193-186.212 27.193zm0-292.949c-48.446 0-122.58 7.164-185.28 27.303-80.64 25.884-121.537 65.608-121.537 118.062 0 114.98 200.711 145.366 306.817 145.366 106.105 0 306.838-30.386 306.838-145.366 0-52.499-40.83-92.222-121.403-118.084-62.656-20.117-136.879-27.281-185.435-27.281z" fill="url(#h)"/><path d="M463.709 587.846c-45.849 0-115.564-6.654-173.735-25.463-75.178-24.264-113.233-61.836-113.233-111.652 0-112.495 207.194-137.136 287.034-137.136 42.962 0 114.032 6.764 172.958 25.839 75.71 24.398 114.098 61.925 114.098 111.297 0 50.281-38.232 87.987-113.61 112.118-57.615 18.431-127.464 24.997-173.512 24.997zm0-272.033c-79.219 0-284.814 24.242-284.814 134.918 0 106.706 186.301 134.897 284.814 134.897 45.892 0 115.453-6.543 172.757-24.908 74.356-23.777 112.079-60.794 112.079-109.989 0-48.307-37.878-85.036-112.545-109.19-58.615-18.986-129.485-25.728-172.291-25.728z" fill="url(#i)"/><path d="M463.709 577.399c-42.008 0-105.795-5.966-158.859-22.69-70.449-22.179-106.173-57.179-106.173-103.978 0-46.799 35.702-81.887 106.15-104.044 52.953-16.679 116.808-22.624 158.882-22.624 42.073 0 105.95 5.945 158.903 22.624 70.426 22.179 106.15 57.179 106.15 104.044 0 46.866-35.724 81.776-106.194 103.978-53.042 16.724-116.83 22.69-158.859 22.69zm0-251.118c-41.919 0-105.507 5.922-158.215 22.513-69.406 21.847-104.596 56.136-104.596 102.026 0 45.89 35.191 79.98 104.618 101.871 52.82 16.635 116.363 22.579 158.193 22.579 41.829 0 105.395-5.944 158.192-22.579 69.428-21.891 104.641-56.159 104.641-101.871 0-45.712-35.191-80.091-104.596-102.026-52.709-16.591-116.297-22.402-158.237-22.402v-.111z" fill="url(#j)"/><path d="M463.709 566.931c-53.597 0-243.051-27.836-243.051-116.199 0-77.119 81.772-116.199 243.051-116.199s243.05 39.08 243.05 116.199c0 88.363-189.454 116.199-243.05 116.199zm0-230.181c-159.858 0-240.831 38.349-240.831 113.982 0 86.677 187.722 113.981 240.831 113.981 53.108 0 240.83-27.304 240.83-113.981 0-75.544-81.017-113.982-240.83-113.982z" fill="url(#k)"/><path d="M463.709 552.891c-44.516 0-90.764-22.18-135.436-43.606-6.66-3.238-13.521-6.476-20.248-9.626-3.93-1.84-8.637-3.704-13.61-5.678-21.959-8.694-52.021-20.604-51.688-46.577.378-29.122 9.392-52.455 26.799-69.355 39.964-38.859 116.674-37.706 172.646-36.907 7.66 0 14.876.221 21.603.221 6.195 0 12.833 0 19.827-.177 57.283-.665 135.724-1.619 175.777 38.016 16.985 16.812 25.533 39.746 25.467 68.224 0 25.529-28.864 37.151-51.932 46.578-4.862 1.951-9.458 3.814-13.322 5.633-6.66 3.15-13.321 6.388-20.159 9.604-44.916 21.47-91.253 43.65-135.724 43.65zM415.64 343.16c-51.354 0-111.234 4.103-144.627 36.552-16.963 16.479-25.755 39.28-26.132 67.781-.311 24.398 27.731 35.487 50.288 44.359 5.018 1.974 9.747 3.859 13.722 5.723 6.66 3.171 13.521 6.409 20.27 9.648 44.516 21.336 90.542 43.383 134.548 43.383 44.005 0 90.075-22.069 134.658-43.428a3083.38 3083.38 0 0 1 20.16-9.603c3.974-1.864 8.592-3.727 13.477-5.701 22.491-9.093 50.488-20.405 50.555-44.359 0-27.857-8.26-50.281-24.8-66.65-39.41-38.991-117.318-38.06-174.201-37.372-6.994 0-13.633.177-19.849.177-6.661 0-13.966-.111-21.626-.222-8.414-.155-17.295-.288-26.443-.288z" fill="url(#l)"/><path d="M463.709 519.688c-32.083 0-70.427-19.274-107.505-37.927-10.901-5.479-22.202-11.09-32.971-16.147-3.796-1.775-8.548-3.571-13.588-5.479-19.56-7.385-43.916-16.59-44.982-34.888-1.465-24.952 5.085-45.246 19.472-60.329 35.524-37.173 112.344-36.396 163.233-35.886 5.772 0 11.234.111 16.341.111h15.386c51.377-.444 129.019-1.131 164.565 36.352 14.232 15.038 20.67 35.155 19.116 59.885-1.154 18.431-25.244 27.481-44.582 34.755-5.196 1.93-10.08 3.771-14.01 5.612-10.391 4.835-21.359 10.336-31.95 15.659-37.611 18.764-76.487 38.282-108.525 38.282zM427.63 331.161c-48.957 0-111.368 3.349-141.874 35.332-13.944 14.639-20.294 34.356-18.873 58.665.977 16.857 24.579 25.795 43.54 32.959 5.084 1.908 9.88 3.726 13.765 5.523 10.813 5.012 22.092 10.69 33.015 16.191 36.834 18.52 74.934 37.705 106.572 37.705 31.639 0 70.16-19.407 107.527-38.171 10.613-5.345 21.581-10.846 32.016-15.703 4.019-1.863 8.881-3.704 14.143-5.678 18.761-7.031 42.185-15.814 43.162-32.804 1.532-24.042-4.707-43.605-18.517-58.177-34.858-36.796-111.923-36.108-162.922-35.665h-15.409c-4.84 0-10.59 0-16.363-.11-6.306-.045-12.9-.111-19.782-.111v.044z" fill="url(#m)"/><path d="M463.709 469.407c-28.642 0-64.787-17.744-99.734-34.978-8.748-4.302-17.007-8.361-25.178-12.176-3.219-1.486-6.994-3.039-10.99-4.658-17.429-7.097-39.121-15.925-41.141-31.872-2.553-19.962 1.976-36.707 13.455-49.705 32.215-36.485 110.524-36.241 157.371-36.241h11.39c46.625 0 124.689-.155 157.349 35.975 11.767 12.998 16.674 29.81 14.587 49.927-1.643 16.013-23.224 24.686-40.564 31.672-4.196 1.708-8.171 3.305-11.568 4.88-8.214 3.837-16.518 7.918-25.31 12.243-34.836 17.189-70.982 34.933-99.667 34.933zm-13.81-167.412c-46.892 0-118.207 1.619-148.113 35.487-11.102 12.51-15.387 28.634-12.922 47.975 1.865 14.638 22.891 23.2 39.765 30.075 4.04 1.642 7.859 3.194 11.101 4.702 8.193 3.815 16.474 7.896 25.222 12.199 34.725 17.101 70.648 34.756 98.757 34.756 28.108 0 63.987-17.744 98.623-34.689 8.881-4.325 17.118-8.428 25.355-12.266 3.464-1.596 7.46-3.216 11.701-4.901 16.785-6.654 37.744-15.193 39.188-29.854 1.998-19.474-2.709-35.687-14.032-48.219-31.994-35.398-109.326-35.265-155.707-35.265h-18.938z" fill="url(#n)"/><path d="M463.709 406.66c-28.597 0-152.643-33.801-155.063-73.193-1.043-16.989 3.819-31.317 14.41-42.584 31.083-32.871 105.062-32.871 140.653-32.871 38.299 0 109.591 0 140.497 32.715 10.657 11.29 15.542 25.662 14.587 42.74-2.398 41.166-124.556 73.193-155.084 73.193zm0-146.385c-35.28 0-108.793 0-139.033 32.16-10.168 10.802-14.809 24.575-13.809 40.944 2.22 38.326 124.644 71.152 152.842 71.152 29.151 0 150.599-31.961 152.864-71.152h1.11-1.11c.955-16.435-3.752-30.275-13.966-41.077-30.262-32.116-103.641-32.116-138.898-32.116v.089z" fill="url(#o)"/><path d="M463.709 335.996c-30.129 0-130.529-19.584-133.06-62.835a43.63 43.63 0 0 1 12.056-33.757c13.321-14.239 45.315-31.185 121.004-31.185 75.688 0 107.593 16.968 121.025 31.185a43.633 43.633 0 0 1 9.657 15.586 43.602 43.602 0 0 1 2.399 18.171c-2.553 43.251-102.93 62.835-133.081 62.835zm0-125.559c-33.837 0-94.361 3.971-119.383 30.475a41.523 41.523 0 0 0-11.479 32.116c2.354 39.924 98.157 60.75 130.862 60.75 32.704 0 128.53-20.893 130.861-60.75a41.503 41.503 0 0 0-2.278-17.286 41.54 41.54 0 0 0-9.178-14.83c-25.045-26.504-85.547-30.475-119.405-30.475z" fill="url(#p)"/><path d="M463.709 262.071c-20.249 0-77.931-5.19-101.177-28.944a32.002 32.002 0 0 1-9.903-23.666c.977-44.492 80.529-54.229 111.013-54.229 30.484 0 110.124 9.737 111.012 54.229a32.08 32.08 0 0 1-9.902 23.666c-23.09 23.688-80.773 28.944-101.043 28.944zm0-104.621a228.154 228.154 0 0 0-65.387 10.114c-28.441 9.404-43.073 23.51-43.472 41.942a29.867 29.867 0 0 0 9.258 22.068c22.735 23.134 79.618 28.279 99.601 28.279 19.982 0 76.887-5.079 99.622-28.279a29.957 29.957 0 0 0 9.259-22.068c-.422-18.432-15.054-32.538-43.495-41.942a227.901 227.901 0 0 0-65.386-10.18v.066z" fill="url(#q)"/><path d="M464.974 189.3h-1.265c-16.142-.222-66.12-5.323-83.437-25.196a21.414 21.414 0 0 1-5.64-17.278c1.887-15.171 20.959-25.728 36.612-31.916 19.716-7.807 41.008-11.445 52.465-11.534 21.714-.199 85.945 14.528 89.098 43.472a23.405 23.405 0 0 1-6.483 18.897c-17.673 19.385-64.409 23.555-81.35 23.555zm-.821-83.706h-.378c-11.257 0-32.216 3.682-51.665 11.379-21.359 8.428-33.859 19.141-35.235 30.142a19.402 19.402 0 0 0 5.106 15.525c15.542 17.744 61.812 24.132 81.794 24.398 19.405.244 64.654-4.968 80.95-22.845a21.277 21.277 0 0 0 5.906-17.145c-1.243-11.445-13.898-22.357-35.635-30.719-18.494-7.075-39.454-10.735-50.843-10.735z" fill="url(#r)"/><path d="M461.622 122.473c-16.164 0-48.846-5.234-60.68-18.631a16.152 16.152 0 0 1-4.307-13.662c3.064-19.164 52.131-32.738 67.074-32.738 14.942 0 64.054 13.574 67.051 32.738a16.22 16.22 0 0 1-3.774 13.307c-11.346 13.707-45.116 18.387-63.277 18.964l-2.087.022zm2.087-62.813c-16.43 0-62.167 14.018-64.876 30.874a13.912 13.912 0 0 0 3.774 11.844c11.879 13.463 46.159 18.321 61.079 17.744 17.762-.577 50.8-5.057 61.635-18.143a14.084 14.084 0 0 0 3.286-11.533c-2.665-16.768-48.446-30.786-64.898-30.786z" fill="url(#s)"/><path d="M463.709 66.004c-10.569 0-45.094-1.553-45.094-21.825 0-8.45 25.2-22.18 45.094-22.18 19.893 0 45.115 13.796 45.115 22.18 0 20.272-34.525 21.825-45.115 21.825zm0-41.853c-20.449 0-42.873 14.062-42.873 19.961 0 18.21 32.815 19.607 42.873 19.607 10.057 0 42.895-1.397 42.895-19.607 0-5.9-22.469-19.961-42.895-19.961z" fill="url(#t)"/><path d="M463.709 24.616c-10.658 0-23.091-3.016-23.091-11.51 0-5.324 12.522-11.645 23.091-11.645 10.568 0 23.112 6.321 23.112 11.644 0 8.495-12.455 11.511-23.112 11.511zm0-20.937c-10.769 0-20.871 6.476-20.871 9.426 0 6.41 10.48 9.294 20.871 9.294 10.39 0 20.892-2.884 20.892-9.294 0-2.95-10.102-9.426-20.892-9.426z" fill="url(#u)"/><path d="M464.819 1.705h-2.221v668.738h2.221V1.705z" fill="url(#v)"/><path d="M605.538 660.329c-6.661-9.737-13.899-19.452-21.558-29.721-19.228-25.751-39.121-52.388-49.934-80.468-19.982-51.634-23.712-113.426-27.398-173.178-1.288-20.916-2.509-40.678-4.44-59.708-2.731-27.724-4.263-56.868-5.884-87.72-4.107-78.849-8.37-160.381-33.681-227.43l2.065-.776c25.444 67.36 29.707 149.069 33.836 228.073 1.621 30.829 3.131 59.885 5.884 87.631 1.887 19.075 3.108 38.859 4.44 59.885 3.686 59.575 7.483 121.212 27.243 172.513 10.724 27.814 30.506 54.318 49.645 79.847 7.682 10.291 14.942 19.962 21.603 29.787l-1.821 1.265z" fill="url(#w)"/><path d="M734.601 629.41c-10.524-6.876-22.202-13.685-34.613-20.871-38.455-22.357-82.15-47.686-101.51-83.772-29.263-54.296-41.474-119.105-53.286-181.762-2.42-12.798-4.685-24.886-7.127-36.974-5.151-25.506-10.169-51.501-15.009-76.63-4.951-25.751-10.08-52.366-15.364-78.494-1.843-9.116-3.508-18.72-5.262-28.833-7.194-41.432-15.276-88.453-39.587-119.682l1.754-1.353c24.644 31.74 32.815 78.96 39.964 120.613 1.754 10.136 3.397 19.74 5.24 28.834 5.284 26.149 10.413 52.765 15.386 78.516 4.84 25.129 9.836 51.013 14.987 76.608 2.442 12.11 4.707 24.198 7.127 36.996 11.812 62.502 24.001 127.133 53.086 181.14 19.139 35.488 62.456 60.684 100.689 82.886 12.411 7.208 24.134 14.039 34.702 20.937l-1.177 1.841z" fill="url(#x)"/><path d="M837.022 580.926c-13.833-4.791-29.863-9.205-46.826-13.885-51.842-14.306-110.612-30.519-140.497-65.585-40.52-47.553-59.947-120.413-76.932-184.712-3.33-12.531-6.483-24.397-9.702-35.687-5.706-20.095-11.301-40.588-16.719-60.417-7.615-27.813-15.541-56.58-23.779-84.704-2.22-7.319-4.24-15.26-6.461-23.666-10.146-38.526-22.779-86.5-53.063-109.678L464.397.84c30.884 23.666 43.628 72.017 53.863 110.898 2.22 8.384 4.285 16.302 6.439 23.577 8.304 28.146 16.186 56.935 23.779 84.77a9556.157 9556.157 0 0 0 16.74 60.396c3.198 11.311 6.35 23.155 9.703 35.731 17.007 64.055 36.279 136.649 76.488 183.825 29.418 34.555 87.833 50.658 139.365 64.875 17.007 4.702 33.081 9.138 46.98 13.929l-.732 2.085z" fill="url(#y)"/><path d="M902.83 519.71l-122.114-18.853c-7.571-1.175-16.008-1.996-24.911-2.883-25.489-2.506-54.374-5.368-73.135-17.544-46.159-29.92-68.828-105.043-86.879-165.394-3.907-12.975-7.593-25.24-11.212-35.975-6.661-19.496-13.055-39.391-19.338-58.621-9.547-29.232-19.405-59.485-29.774-89.006-2.22-5.967-4.241-12.532-6.505-19.474C515.64 71.172 499.21 20.402 463.131 2.703l.977-1.996c36.923 18.12 53.597 69.378 66.985 110.587 2.22 6.921 4.441 13.463 6.461 19.408 10.391 29.543 20.249 59.885 29.796 89.051 6.283 19.23 12.766 39.125 19.338 58.598 3.641 10.78 7.327 23.045 11.235 36.042 18.028 60.018 40.475 134.697 85.946 164.129 18.317 11.866 46.913 14.683 72.158 17.19 8.881.865 17.384 1.707 25.044 2.883l122.114 18.875-.355 2.24z" fill="url(#z)"/><path d="M726.142 455.456a115.274 115.274 0 0 1-31.683-3.66c-53.153-15.526-79.64-106.617-97.158-166.946-3.885-13.419-7.26-25.041-10.435-34.201-2.664-7.652-5.284-15.304-7.926-22.956-14.343-41.72-29.197-84.881-46.182-126.424-1.754-4.436-3.552-8.872-5.395-13.751C514.486 54.248 498.5 12.95 463.509 2.77l.621-2.218c36.013 10.468 52.243 52.41 65.298 86.079 1.843 4.768 3.619 9.382 5.395 13.707 17.007 41.609 31.861 84.792 46.226 126.424 2.62 7.659 5.254 15.311 7.904 22.955 3.197 9.227 6.661 20.849 10.479 34.312 17.385 59.885 43.673 150.334 95.649 165.416 18.828 5.478 43.339 3.549 67.029 1.663 11.102-.865 21.537-1.685 30.862-1.685h132.749v2.218h-132.86c-9.237 0-19.649.82-30.684 1.685-12.123 1.154-24.445 2.13-36.035 2.13z" fill="url(#A)"/><path d="M702.852 416.464a59.98 59.98 0 0 1-19.871-2.884c-47.536-17.011-74.179-98.344-91.808-152.152-3.73-11.378-7.238-22.179-10.435-30.674-5.617-15.038-11.101-30.431-16.452-45.335-12.145-34.024-24.734-69.201-39.476-102.648a958.692 958.692 0 0 1-4.751-11.09c-11.546-27.458-25.933-61.636-56.595-68.756l.511-2.218c31.75 7.43 46.381 42.141 58.126 70.132 1.621 3.815 3.197 7.54 4.751 11.09 14.765 33.535 27.354 68.756 39.543 102.824 5.307 14.883 10.813 30.276 16.408 45.291 3.219 8.606 6.661 19.363 10.479 30.763 17.496 53.387 43.939 134.098 90.453 150.822 19.028 6.831 50.378-.4 75.489-6.188 9.347-2.218 18.184-4.17 25.466-5.301l118.14-18.299.333 2.218-118.051 18.254c-7.194 1.109-15.986 3.128-25.289 5.279-18.028 3.992-39.165 8.872-56.971 8.872z" fill="url(#B)"/><path d="M675.254 376.785a55.102 55.102 0 0 1-25.2-5.19c-43.828-22.513-66.252-93.643-82.615-145.565-3.064-9.737-5.973-18.92-8.704-26.793-3.552-10.225-7.282-24.398-11.634-40.833C531.559 99.65 508.158 10.843 463.509 2.792l.399-2.218c46.026 8.295 69.694 97.923 85.347 157.231 4.329 16.369 8.059 30.519 11.59 40.655 2.73 7.896 5.639 17.101 8.703 26.838 16.252 51.567 38.499 122.187 81.505 144.278 32.416 16.613 98.69-12.132 147.092-33.136 15.32-6.654 28.53-12.376 38.877-15.947l.732 2.085c-10.257 3.548-23.446 9.271-38.721 15.902-38.477 16.746-88.144 38.305-123.779 38.305z" fill="url(#C)"/><path d="M609.69 348.572a27.48 27.48 0 0 1-10.657-1.974c-34.392-14.417-51.332-91.602-61.457-137.713-2.22-10.158-4.151-18.897-5.883-25.352-2.709-10.18-5.218-23.488-8.104-39.013-9.88-52.877-23.402-125.249-60.324-141.95l.91-2.018c37.988 17.056 51.621 90.093 61.59 143.435 2.886 15.526 5.373 28.834 8.081 38.837 1.732 6.498 3.664 15.281 5.906 25.44 10.014 45.712 26.821 122.187 60.147 136.138 25.244 10.58 76.154-28.39 109.836-54.185 9.902-7.585 18.472-14.15 24.866-18.32l1.221 1.841c-6.327 4.148-14.875 10.691-24.733 18.254-31.705 24.442-73.757 56.58-101.399 56.58z" fill="url(#D)"/><path d="M535.689 338.791c-.28.034-.563.034-.844 0-19.982-4.237-29.285-83.551-35.191-152.175-.621-7.164-1.065-12.331-1.376-14.527-1.821-13.197-2.931-27.569-4.13-42.763-3.463-44.359-7.371-94.773-31.328-126.867l1.777-1.33c24.422 32.625 28.286 83.306 31.771 128.02 1.177 15.171 2.221 29.499 4.108 42.629.311 2.218.777 7.453 1.399 14.661 3.086 36.042 12.544 145.742 33.437 150.178 10.257 2.218 46.425-56.802 61.856-82.064 3.996-6.521 6.86-11.09 8.37-13.308l1.821 1.264c-1.466 2.218-4.441 7.053-8.282 13.308-26.532 43.139-52.486 82.974-63.388 82.974z" fill="url(#E)"/><path d="M464.819 1.705h-2.221v338.661h2.221V1.705z" fill="url(#F)"/><path d="M391.728 338.791c-11.101 0-37.744-41.653-61.945-80.911-4.44-7.12-7.837-12.731-9.725-15.526l1.843-1.264c1.91 2.794 5.373 8.428 9.769 15.525 15.098 24.531 50.444 82.065 60.458 79.847 19.072-4.059 24.578-70.775 27.553-106.617.733-9.094 1.332-16.28 1.976-20.783 2.22-16.39 3.575-34.955 4.907-54.628C430.227 100.382 434.401 39.1 462.82.974l1.777 1.33c-28.02 37.705-32.172 98.522-35.813 152.285-1.332 19.696-2.598 38.304-4.929 54.784-.622 4.436-1.221 11.6-1.976 20.649-3.219 38.97-8.615 104.244-29.307 108.68-.277.064-.56.094-.844.089z" fill="url(#G)"/><path d="M317.971 348.572c-27.442 0-69.76-32.227-101.687-56.536-9.858-7.497-18.362-13.973-24.667-18.121l1.221-1.84c6.372 4.169 14.92 10.668 24.8 18.187 33.859 25.795 85.036 64.786 109.903 54.318 29.84-12.554 44.582-75.677 53.397-113.382 1.842-7.963 3.463-14.816 4.929-20.206 5.239-18.964 10.324-38.282 15.253-56.98 5.439-20.649 11.101-41.986 16.896-62.901 1.265-4.436 2.509-9.737 3.819-15.237 6.527-27.459 15.541-65.053 41.474-75.167l.821 2.063c-24.911 9.692-33.703 46.577-40.142 73.614-1.31 5.522-2.553 10.757-3.841 15.326-5.817 20.915-11.434 42.141-16.874 62.857-4.929 18.697-10.035 38.038-15.253 57.002-1.487 5.345-3.086 12.198-4.929 20.116-9.48 40.611-23.823 102.027-54.685 114.957a27.046 27.046 0 0 1-10.435 1.93z" fill="url(#H)"/><path d="M252.296 376.762c-35.524 0-85.479-21.602-124.112-38.348-15.208-6.654-28.33-12.265-38.499-15.792l.71-2.085c10.258 3.549 23.424 9.249 38.677 15.859 48.579 21.026 115.098 49.859 147.292 33.269 38.832-19.962 59.569-81.843 74.711-126.956 2.42-7.275 4.729-14.129 6.905-20.184 3.508-9.781 7.638-24.641 12.434-41.875C388.997 113.823 417.039 12.84 463.442.685l.555 2.218c-45.137 11.822-73.002 112.073-91.452 178.413-4.796 17.255-8.881 32.16-12.478 42.008-2.22 6.055-4.44 12.908-6.905 20.161-15.253 45.468-36.145 107.749-75.777 128.221a54.532 54.532 0 0 1-25.089 5.056z" fill="url(#I)"/><path d="M223.744 416.353c-17.407 0-36.878-4.436-54.663-8.606-9.591-2.218-18.672-4.436-26.643-5.567l-118.05-18.254.333-2.218 118.05 18.254c8.171 1.264 17.274 3.372 26.932 5.59 25 5.788 53.286 12.331 74.156 5.899 44.827-13.884 74.667-103.512 92.496-157.054 3.197-9.648 5.972-17.987 8.37-24.397 4.041-10.913 8.548-25.972 13.766-43.406C379.184 117.505 410.467 13.105 463.575.663l.511 2.218c-51.865 12.154-82.904 115.822-103.464 184.423-5.217 17.478-9.747 32.56-13.81 43.517-2.375 6.432-5.151 14.749-8.348 24.397-17.984 53.963-48.046 144.168-93.939 158.473a69.73 69.73 0 0 1-20.781 2.662z" fill="url(#J)"/><path d="M198.788 455.7c-13.321 0-27.375-1.087-40.586-2.085-11.789-.932-22.957-1.775-32.282-1.775H1.83v-2.218h124.09c9.413 0 20.604.865 32.46 1.775 25.51 1.952 54.44 4.192 74.067-1.73 48.424-14.617 70.76-88.231 87.056-141.95 3.642-12.021 7.083-23.377 10.435-32.737 6.817-19.119 13.522-38.659 19.983-57.667 10.59-30.874 21.558-62.813 33.303-93.864 1.888-4.946 3.842-10.424 5.906-16.235C403.384 67.29 422.923 12.329 463.331.574l.622 2.218c-39.299 11.445-58.637 65.652-72.736 105.242-2.064 5.833-4.04 11.334-5.905 16.28-11.79 31.051-22.736 62.946-33.304 93.798-6.483 18.897-13.189 38.459-19.982 57.667-3.331 9.315-6.772 20.649-10.413 32.67-16.43 54.229-38.966 128.487-88.522 143.436a122.262 122.262 0 0 1-34.303 3.815z" fill="url(#K)"/><path d="M24.543 519.71l-.333-2.218 122.114-18.875c7.993-1.22 16.629-2.063 25.799-2.928 24.711-2.373 52.731-5.056 71.403-17.167 44.672-28.944 69.117-109.19 86.968-167.766 3.619-11.8 7.016-22.956 10.213-32.449 6.66-19.474 13.055-39.347 19.316-58.576 9.547-29.255 19.427-59.53 29.818-89.074 2.087-5.944 4.218-12.487 6.461-19.407 13.321-41.21 30.04-92.467 66.963-110.587l.976 1.996c-36.079 17.744-52.575 68.468-65.83 109.257-2.22 6.942-4.44 13.507-6.483 19.473-10.369 29.521-20.249 59.885-29.796 89.029-6.261 19.23-12.766 39.103-19.338 58.599-3.175 9.448-6.661 20.583-10.169 32.382-17.962 58.909-42.54 139.599-87.9 168.987-19.116 12.398-47.424 15.126-72.402 17.499-9.125.887-17.762 1.708-25.666 2.928L24.543 519.71z" fill="url(#L)"/><path d="M90.396 580.926l-.71-2.107c13.898-4.791 29.95-9.227 46.957-13.929 51.577-14.262 110.014-30.408 139.388-64.876 40.519-47.553 59.458-119.215 76.154-182.449 3.442-13.02 6.661-25.307 10.036-37.107 5.706-19.961 11.301-40.5 16.696-60.284 7.616-27.88 15.542-56.691 23.823-84.881 2.221-7.275 4.241-15.193 6.439-23.577 10.236-38.859 22.98-87.21 53.864-110.898l1.354 1.752c-30.284 23.2-42.918 71.152-53.064 109.678-2.22 8.406-4.307 16.346-6.461 23.666-8.326 28.146-16.208 56.957-23.801 84.815a10729.618 10729.618 0 0 1-16.719 60.306c-3.352 11.8-6.66 24.065-10.013 37.084-16.763 63.456-35.768 135.296-76.621 183.315-29.796 34.977-88.61 51.235-140.497 65.563-16.963 4.724-32.993 9.138-46.825 13.929z" fill="url(#M)"/><path d="M192.838 629.41l-1.221-1.863c10.435-6.831 22.069-13.596 34.369-20.76 38.344-22.379 81.972-47.753 101-82.996 28.863-53.741 41.341-119.082 53.286-182.294 2.353-12.443 4.573-24.176 6.927-35.843 5.151-25.506 10.146-51.501 14.986-76.652 4.974-25.729 10.103-52.344 15.387-78.472 1.82-9.071 3.486-18.675 5.24-28.833 7.193-41.654 15.341-88.874 39.964-120.613l1.754 1.353c-24.245 31.184-32.371 78.205-39.52 119.592-1.754 10.159-3.397 19.762-5.24 28.834-5.284 26.105-10.413 52.721-15.364 78.449-4.841 25.152-9.858 51.146-15.009 76.675-2.354 11.644-4.574 23.377-6.927 35.798-11.435 60.44-24.423 128.908-53.531 182.938-19.316 35.864-63.144 61.415-101.82 83.927-12.301 7.209-23.89 13.973-34.281 20.76z" fill="url(#N)"/><path d="M321.901 660.329l-1.843-1.265c6.661-9.714 13.899-19.429 21.559-29.72 19.183-25.684 39.01-52.278 49.689-80.002 19.538-50.725 23.69-116.31 27.331-174.155 1.31-20.516 2.532-39.923 4.33-58.155 2.731-27.68 4.263-56.802 5.884-87.631 4.129-79.004 8.392-160.714 33.836-228.073l2.065.776c-25.311 67.05-29.574 148.604-33.703 227.43-1.599 30.852-3.131 59.885-5.862 87.72-1.82 18.232-3.042 37.573-4.329 58.066-3.664 58.022-7.816 123.785-27.465 174.82-10.79 28.013-30.728 54.717-49.978 80.534-7.659 10.27-14.898 19.962-21.514 29.655z" fill="url(#O)"/><defs><linearGradient id="a" x1="463.72" y1="230" x2="463.72" y2="671.552" gradientUnits="userSpaceOnUse"><stop stop-color="#CCCFD5"/><stop offset="1" stop-color="#CCCFD5" stop-opacity="0"/></linearGradient><linearGradient id="b" x1="463.72" y1="240.358" x2="463.72" y2="661.083" gradientUnits="userSpaceOnUse"><stop stop-color="#CCCFD5"/><stop offset="1" stop-color="#CCCFD5" stop-opacity="0"/></linearGradient><linearGradient id="c" x1="463.709" y1="250.826" x2="463.709" y2="650.636" gradientUnits="userSpaceOnUse"><stop stop-color="#CCCFD5"/><stop offset="1" stop-color="#CCCFD5" stop-opacity="0"/></linearGradient><linearGradient id="d" x1="463.742" y1="261.295" x2="463.742" y2="640.168" gradientUnits="userSpaceOnUse"><stop stop-color="#CCCFD5"/><stop offset="1" stop-color="#CCCFD5" stop-opacity="0"/></linearGradient><linearGradient id="e" x1="463.72" y1="271.742" x2="463.72" y2="629.699" gradientUnits="userSpaceOnUse"><stop stop-color="#CCCFD5"/><stop offset="1" stop-color="#CCCFD5" stop-opacity="0"/></linearGradient><linearGradient id="f" x1="463.72" y1="282.033" x2="463.72" y2="619.163" gradientUnits="userSpaceOnUse"><stop stop-color="#CCCFD5"/><stop offset="1" stop-color="#CCCFD5" stop-opacity="0"/></linearGradient><linearGradient id="g" x1="463.72" y1="292.68" x2="463.72" y2="608.783" gradientUnits="userSpaceOnUse"><stop stop-color="#CCCFD5"/><stop offset="1" stop-color="#CCCFD5" stop-opacity="0"/></linearGradient><linearGradient id="h" x1="463.709" y1="303.148" x2="463.709" y2="598.315" gradientUnits="userSpaceOnUse"><stop stop-color="#CCCFD5"/><stop offset="1" stop-color="#CCCFD5" stop-opacity="0"/></linearGradient><linearGradient id="i" x1="463.786" y1="313.595" x2="463.786" y2="587.846" gradientUnits="userSpaceOnUse"><stop stop-color="#CCCFD5"/><stop offset="1" stop-color="#CCCFD5" stop-opacity="0"/></linearGradient><linearGradient id="j" x1="463.72" y1="324.063" x2="463.72" y2="577.399" gradientUnits="userSpaceOnUse"><stop stop-color="#CCCFD5"/><stop offset="1" stop-color="#CCCFD5" stop-opacity="0"/></linearGradient><linearGradient id="k" x1="463.709" y1="334.533" x2="463.709" y2="566.931" gradientUnits="userSpaceOnUse"><stop stop-color="#CCCFD5"/><stop offset="1" stop-color="#CCCFD5" stop-opacity="0"/></linearGradient><linearGradient id="l" x1="463.785" y1="340.895" x2="463.785" y2="552.891" gradientUnits="userSpaceOnUse"><stop stop-color="#CCCFD5"/><stop offset="1" stop-color="#CCCFD5" stop-opacity="0"/></linearGradient><linearGradient id="m" x1="463.733" y1="328.903" x2="463.733" y2="519.688" gradientUnits="userSpaceOnUse"><stop stop-color="#CCCFD5"/><stop offset="1" stop-color="#CCCFD5" stop-opacity="0"/></linearGradient><linearGradient id="n" x1="463.63" y1="299.777" x2="463.63" y2="469.407" gradientUnits="userSpaceOnUse"><stop stop-color="#CCCFD5"/><stop offset="1" stop-color="#CCCFD5" stop-opacity="0"/></linearGradient><linearGradient id="o" x1="463.709" y1="258.012" x2="463.709" y2="406.66" gradientUnits="userSpaceOnUse"><stop stop-color="#CCCFD5"/><stop offset="1" stop-color="#CCCFD5" stop-opacity="0"/></linearGradient><linearGradient id="p" x1="463.72" y1="208.219" x2="463.72" y2="335.996" gradientUnits="userSpaceOnUse"><stop stop-color="#CCCFD5"/><stop offset="1" stop-color="#CCCFD5" stop-opacity="0"/></linearGradient><linearGradient id="q" x1="463.642" y1="155.232" x2="463.642" y2="262.071" gradientUnits="userSpaceOnUse"><stop stop-color="#CCCFD5"/><stop offset="1" stop-color="#CCCFD5" stop-opacity="0"/></linearGradient><linearGradient id="r" x1="463.71" y1="103.374" x2="463.71" y2="189.3" gradientUnits="userSpaceOnUse"><stop stop-color="#CCCFD5"/><stop offset="1" stop-color="#CCCFD5" stop-opacity="0"/></linearGradient><linearGradient id="s" x1="463.711" y1="57.442" x2="463.711" y2="122.473" gradientUnits="userSpaceOnUse"><stop stop-color="#CCCFD5"/><stop offset="1" stop-color="#CCCFD5" stop-opacity="0"/></linearGradient><linearGradient id="t" x1="463.72" y1="21.999" x2="463.72" y2="66.004" gradientUnits="userSpaceOnUse"><stop stop-color="#CCCFD5"/><stop offset="1" stop-color="#CCCFD5" stop-opacity="0"/></linearGradient><linearGradient id="u" x1="463.72" y1="1.461" x2="463.72" y2="24.616" gradientUnits="userSpaceOnUse"><stop stop-color="#CCCFD5"/><stop offset="1" stop-color="#CCCFD5" stop-opacity="0"/></linearGradient><linearGradient id="v" x1="463.709" y1="1.705" x2="463.709" y2="670.443" gradientUnits="userSpaceOnUse"><stop stop-color="#CCCFD5"/><stop offset="1" stop-color="#CCCFD5" stop-opacity="0"/></linearGradient><linearGradient id="w" x1="535.001" y1="1.328" x2="535.001" y2="660.329" gradientUnits="userSpaceOnUse"><stop stop-color="#CCCFD5"/><stop offset="1" stop-color="#CCCFD5" stop-opacity="0"/></linearGradient><linearGradient id="x" x1="599.31" y1="1.039" x2="599.31" y2="629.41" gradientUnits="userSpaceOnUse"><stop stop-color="#CCCFD5"/><stop offset="1" stop-color="#CCCFD5" stop-opacity="0"/></linearGradient><linearGradient id="y" x1="650.398" y1=".84" x2="650.398" y2="580.926" gradientUnits="userSpaceOnUse"><stop stop-color="#CCCFD5"/><stop offset="1" stop-color="#CCCFD5" stop-opacity="0"/></linearGradient><linearGradient id="z" x1="683.158" y1=".707" x2="683.158" y2="519.71" gradientUnits="userSpaceOnUse"><stop stop-color="#CCCFD5"/><stop offset="1" stop-color="#CCCFD5" stop-opacity="0"/></linearGradient><linearGradient id="A" x1="694.615" y1=".552" x2="694.615" y2="455.488" gradientUnits="userSpaceOnUse"><stop stop-color="#CCCFD5"/><stop offset="1" stop-color="#CCCFD5" stop-opacity="0"/></linearGradient><linearGradient id="B" x1="683.314" y1=".707" x2="683.314" y2="416.481" gradientUnits="userSpaceOnUse"><stop stop-color="#CCCFD5"/><stop offset="1" stop-color="#CCCFD5" stop-opacity="0"/></linearGradient><linearGradient id="C" x1="650.631" y1=".574" x2="650.631" y2="376.814" gradientUnits="userSpaceOnUse"><stop stop-color="#CCCFD5"/><stop offset="1" stop-color="#CCCFD5" stop-opacity="0"/></linearGradient><linearGradient id="D" x1="599.544" y1=".552" x2="599.544" y2="348.575" gradientUnits="userSpaceOnUse"><stop stop-color="#CCCFD5"/><stop offset="1" stop-color="#CCCFD5" stop-opacity="0"/></linearGradient><linearGradient id="E" x1="535.09" y1="1.128" x2="535.09" y2="338.816" gradientUnits="userSpaceOnUse"><stop stop-color="#CCCFD5"/><stop offset="1" stop-color="#CCCFD5" stop-opacity="0"/></linearGradient><linearGradient id="F" x1="463.709" y1="1.705" x2="463.709" y2="340.366" gradientUnits="userSpaceOnUse"><stop stop-color="#CCCFD5"/><stop offset="1" stop-color="#CCCFD5" stop-opacity="0"/></linearGradient><linearGradient id="G" x1="392.327" y1=".973" x2="392.327" y2="338.791" gradientUnits="userSpaceOnUse"><stop stop-color="#CCCFD5"/><stop offset="1" stop-color="#CCCFD5" stop-opacity="0"/></linearGradient><linearGradient id="H" x1="327.874" y1=".707" x2="327.874" y2="348.575" gradientUnits="userSpaceOnUse"><stop stop-color="#CCCFD5"/><stop offset="1" stop-color="#CCCFD5" stop-opacity="0"/></linearGradient><linearGradient id="I" x1="276.841" y1=".685" x2="276.841" y2="376.802" gradientUnits="userSpaceOnUse"><stop stop-color="#CCCFD5"/><stop offset="1" stop-color="#CCCFD5" stop-opacity="0"/></linearGradient><linearGradient id="J" x1="244.237" y1=".663" x2="244.237" y2="416.372" gradientUnits="userSpaceOnUse"><stop stop-color="#CCCFD5"/><stop offset="1" stop-color="#CCCFD5" stop-opacity="0"/></linearGradient><linearGradient id="K" x1="232.891" y1=".574" x2="232.891" y2="455.758" gradientUnits="userSpaceOnUse"><stop stop-color="#CCCFD5"/><stop offset="1" stop-color="#CCCFD5" stop-opacity="0"/></linearGradient><linearGradient id="L" x1="244.226" y1=".663" x2="244.226" y2="519.71" gradientUnits="userSpaceOnUse"><stop stop-color="#CCCFD5"/><stop offset="1" stop-color="#CCCFD5" stop-opacity="0"/></linearGradient><linearGradient id="M" x1="277.041" y1=".818" x2="277.041" y2="580.926" gradientUnits="userSpaceOnUse"><stop stop-color="#CCCFD5"/><stop offset="1" stop-color="#CCCFD5" stop-opacity="0"/></linearGradient><linearGradient id="N" x1="328.073" y1="1.084" x2="328.073" y2="629.41" gradientUnits="userSpaceOnUse"><stop stop-color="#CCCFD5"/><stop offset="1" stop-color="#CCCFD5" stop-opacity="0"/></linearGradient><linearGradient id="O" x1="392.405" y1="1.328" x2="392.405" y2="660.329" gradientUnits="userSpaceOnUse"><stop stop-color="#CCCFD5"/><stop offset="1" stop-color="#CCCFD5" stop-opacity="0"/></linearGradient></defs></svg>