<svg width="1363" height="1070" viewBox="0 0 1363 1070" fill="none" xmlns="http://www.w3.org/2000/svg"><ellipse rx="656.081" ry="219.988" transform="matrix(-.83704 .54714 .60004 .79997 681.171 535.05)" stroke="#CCCFD5" stroke-width="4" stroke-linecap="round" stroke-dasharray="0.5 15"/><ellipse rx="22.645" ry="32.089" transform="matrix(-.83177 -.55512 -.61095 .79167 1141.44 432.974)" fill="#0045FF"/><path d="M112.5 798l8.119 16.736 15.094-11.79-.464 18.367 19.079-4.509-8.954 16.36 19.285 3.666-15.672 11.113 15.672 11.113-19.285 3.666 8.954 16.36-19.079-4.509.464 18.367-15.094-11.79-8.119 16.736-8.119-16.736-15.094 11.79.464-18.367-19.079 4.509 8.954-16.36-19.285-3.666 15.672-11.113-15.672-11.113 19.285-3.666-8.954-16.36 19.079 4.509-.464-18.367 15.094 11.79L112.5 798z" fill="#E48038"/></svg>