<svg width="1351" height="643" viewBox="0 0 1351 643" fill="none" xmlns="http://www.w3.org/2000/svg"><mask id="a" fill="#fff"><path fill-rule="evenodd" clip-rule="evenodd" d="M734.705 350h-.149C695.037 350 663 317.964 663 278.445c0-39.52 32.037-71.556 71.556-71.556 4.063 0 8.047.339 11.926.989C746.647 139.434 802.183 84 870.667 84c47.885 0 89.439 27.102 110.162 66.804a101.649 101.649 0 0 1 28.541-4.063c56.13 0 101.63 45.501 101.63 101.63C1111 304.499 1065.5 350 1009.37 350H734.705z"/></mask><path fill-rule="evenodd" clip-rule="evenodd" d="M734.705 350h-.149C695.037 350 663 317.964 663 278.445c0-39.52 32.037-71.556 71.556-71.556 4.063 0 8.047.339 11.926.989C746.647 139.434 802.183 84 870.667 84c47.885 0 89.439 27.102 110.162 66.804a101.649 101.649 0 0 1 28.541-4.063c56.13 0 101.63 45.501 101.63 101.63C1111 304.499 1065.5 350 1009.37 350H734.705z" fill="#fff"/><path d="M734.705 350v-1h-.002l.002 1zm11.777-142.122l-.166.987 1.163.195.003-1.179-1-.003zm234.347-57.074l-.887.462.38.728.787-.23-.28-.96zM1009.11 350v-1 1zm-274.407-1h-.147v2h.151l-.004-2zm-.147 0C695.589 349 664 317.411 664 278.445h-2C662 318.516 694.484 351 734.556 351v-2zM664 278.445c0-38.967 31.589-70.556 70.556-70.556v-2c-40.072 0-72.556 32.484-72.556 72.556h2zm70.556-70.556c4.007 0 7.936.334 11.76.976l.331-1.973a73.015 73.015 0 0 0-12.091-1.003v2zm12.926-.008C747.646 139.987 802.735 85 870.667 85v-2c-69.035 0-125.018 55.88-125.185 124.876l2 .005zM870.667 85c47.498 0 88.718 26.882 109.275 66.266l1.773-.925C960.827 110.322 918.939 83 870.667 83v2zm110.442 66.764a100.636 100.636 0 0 1 28.261-4.023v-2a102.664 102.664 0 0 0-28.822 4.103l.561 1.92zm28.261-4.023c55.58 0 100.63 45.053 100.63 100.63h2c0-56.681-45.95-102.63-102.63-102.63v2zM1110 248.371C1110 303.947 1064.95 349 1009.37 349v2c56.68 0 102.63-45.949 102.63-102.629h-2zM1009.37 349h-.26l-.01 2h.27v-2zm-.26 0H734.705v2h274.405v-2z" fill="#717783" mask="url(#a)"/><rect x="870.5" y="365.5" width="64" height="35" rx="17.5" fill="#fff" stroke="#717783"/><path d="M980.195 461.795C1007.71 541.958 1094.4 566.049 1131.81 569v-45.243l52.2-12.222a14.002 14.002 0 0 0 10.81-13.631v-67.582h44.19c4 0 6.88-3.815 5.77-7.654-10.22-35.287-28.61-99.312-35.19-124.14-8.86-33.44-42.61-135.19-153.59-119.991-122.078 16.719-123.19 131.182-115.186 162.283 8.86 34.424 15.751 52.127 39.381 120.975z" fill="#000F2E" stroke="#000F2E"/><path d="M1170.46 136.753l.96.18 46.68-110.589-40 113.175.83.514 83.48-86.258-78.19 91.081.59.779 109-50.277L1188 152.043l.27.94 119.8-7.507-119.14 14.635-.09.973 114.42 36.277-116.38-29.392-.44.874 93.59 75.163-97.9-69.45-.72.658 60.12 103.897-66.21-100.129-.9.423 18.47 60.062-25.55-58.909-.46-1.058-.46 1.058-25.55 58.909 18.47-60.062-.89-.423-66.21 100.129 60.12-103.897-.72-.658-97.91 69.45 93.6-75.163-.44-.874-116.38 29.392 114.42-36.277-.09-.973-119.14-14.635 119.8 7.507.27-.94-105.81-56.685 109 50.277.59-.779-78.19-91.081 83.48 86.258.83-.514-40.01-113.175 46.68 110.589.96-.18 3.58-119.984 3.58 119.984z" stroke="#717783"/><path d="M1196.94 243.88c-.06 2.485-.86 6.074-2.42 9.021-1.57 2.973-3.79 5.063-6.58 5.063h-42.01c-2.38 0-4.6-2.065-6.29-5.079-1.67-2.965-2.66-6.55-2.72-9.005-.26-10.687-2.83-18.323-6.56-24.518-3.42-5.666-7.79-10.104-12.15-14.522-.38-.393-.77-.785-1.16-1.177-4.74-4.835-9.39-9.797-12.86-16.537-3.47-6.728-5.79-15.273-5.79-27.276 0-37.851 30.68-68.535 68.53-68.535 37.86 0 68.54 30.684 68.54 68.535 0 12.003-2.32 20.548-5.79 27.276-3.47 6.74-8.12 11.702-12.87 16.537-.38.392-.77.784-1.16 1.176-4.35 4.419-8.73 8.857-12.14 14.523-3.73 6.195-6.3 13.831-6.57 24.518z" fill="#FCF089" stroke="#717783" stroke-width="1.5" stroke-miterlimit="2.613" stroke-linecap="round" stroke-linejoin="round"/><path fill-rule="evenodd" clip-rule="evenodd" d="M1160.46 197.572v-8.404c0-5.305-4.19-9.605-9.35-9.605-5.16 0-9.35 4.3-9.35 9.605 0 5.305 4.19 9.605 9.35 9.605h8.18v59.039h1.17v-59.039h12.85v59.039h1.17v-59.039h8.18c5.16 0 9.34-4.3 9.34-9.605 0-5.305-4.18-9.605-9.34-9.605-5.17 0-9.35 4.3-9.35 9.605v8.404h-12.85zm-1.17-8.404v8.404h-8.18c-4.52 0-8.18-3.763-8.18-8.404 0-4.642 3.66-8.405 8.18-8.405s8.18 3.763 8.18 8.405zm15.19 0v8.404h8.18c4.51 0 8.18-3.763 8.18-8.404 0-4.642-3.67-8.405-8.18-8.405-4.52 0-8.18 3.763-8.18 8.405z" fill="#717783"/><path d="M1192.24 275.289h-50.61" stroke="#717783" stroke-width="1.5" stroke-miterlimit="2.613" stroke-linecap="round" stroke-linejoin="round"/><path d="M1192.24 289.144h-50.61" stroke="#717783" stroke-width="1.5" stroke-miterlimit="2.613" stroke-linejoin="round"/><path d="M1186.18 303h-38.5" stroke="#717783" stroke-width="1.5" stroke-miterlimit="2.613" stroke-linecap="round" stroke-linejoin="round"/><path d="M-92 595.713c119.222-9.463 408.354-26.591 611.112-19.389 202.757 7.202 394.481 46.627 464.999 65.439" stroke="#CCCFD5"/><circle cx="958" cy="621" r="18.5" stroke="#717783"/><path d="M1236.33 431.5c60.9 75.46 93.22 134.501 77.94 149.776-23.06 23.066-145.93-62.405-274.43-190.905-128.5-128.499-213.97-251.368-190.904-274.434 15.362-15.362 74.988 17.416 151.064 78.983" stroke="#CCCFD5" stroke-width="2" stroke-linecap="round" stroke-dasharray="2 10"/><rect x="913.5" y="412.5" width="36" height="23" rx="11.5" fill="#fff" stroke="#717783"/><path d="M846.631 502.602l-.021-86.933c-.001-5.399-5.855-8.764-10.52-6.049l-74.944 43.61c-5.707 3.321-4.065 11.971 2.461 12.97l40.314 6.171a6.998 6.998 0 0 1 4.391 2.527l25.869 32.098c4.144 5.143 12.452 2.211 12.45-4.394z" fill="#000" stroke="#000" stroke-width="2"/><path stroke="#CCCFD5" stroke-width="3" stroke-linecap="round" d="M760.5 431.555h-53m65 0h-4m-24 30h-87m111 28h-43m-15 0h-7"/></svg>