<svg width="83" height="82" viewBox="0 0 83 82" fill="none" xmlns="http://www.w3.org/2000/svg"><path d="M4.5.5h60A3.5 3.5 0 0 1 68 4v15.5H1V4A3.5 3.5 0 0 1 4.5.5z" fill="#fff"/><circle cx="10.5" cy="10" r="2" fill="#717783"/><circle cx="18.5" cy="10" r="2" fill="#717783"/><circle cx="26.5" cy="10" r="2" fill="#717783"/><path d="M4.5.5h60A3.5 3.5 0 0 1 68 4v15.5H1V4A3.5 3.5 0 0 1 4.5.5z" stroke="#717783"/><path d="M1 19.5h67V60a2.5 2.5 0 0 1-2.5 2.5h-62A2.5 2.5 0 0 1 1 60V19.5z" fill="#fff" stroke="#717783"/><path fill="#CCCFD5" d="M8.5 27h22v3h-22zm30 0h22v3h-22zm-30 7h22v3h-22zm30 0h22v3h-22zm-30 7h22v3h-22zm30 0h22v3h-22zm-30 7h22v3h-22z"/><path fill="#fff" d="M38.5 48h22v3h-22z"/><path d="M53.523 76.214l.007-28.88c0-1.542 1.672-2.504 3.006-1.728l24.899 14.489c1.63.948 1.161 3.42-.704 3.705l-13.645 2.09a2 2 0 0 0-1.255.722l-8.75 10.859c-1.185 1.469-3.559.631-3.558-1.256z" fill="#E48038" stroke="#E48038"/></svg>