<svg width="84" height="82" viewBox="0 0 84 82" fill="none" xmlns="http://www.w3.org/2000/svg"><path d="M18.76 10.342l.497-.05-.498.05zm-.385-1.476l-.348.359.348-.36zm1.127 4.047l.215-.452-.215.452zm.094.04l.168-.472-.168.471zm2.343-1.294l.317.387-.317-.387zm1.316-.772l.007-.5-.007.5zm.07.004l-.043.498.042-.498zm1.232.899l.353-.354-.354.354zm1.154 1.154l.353-.354-.353.354zm.899 1.232l-.498.042.498-.042zm.003.07l-.5.007.5-.008zm-.772 1.315l.387.317-.387-.317zm-1.293 2.343l.471-.167-.47.167zm.04.094l-.453.215.452-.215zm2.57.743l-.05.497.05-.497zm1.477.384l-.36.349.36-.349zm.046.052l.382-.322-.382.322zm0 4.646l.382.323-.382-.323zm-.047.052l-.358-.348.358.348zm-1.476.384l-.05-.497.05.497zm-2.57.743l.451.214-.451-.214zm-.04.094l-.47-.167.47.167zm1.293 2.343l-.387.316.387-.316zm.772 1.315l-.5-.007.5.007zm-.003.07l.498.042-.498-.042zm-2.053 2.386l-.354-.354.354.354zm-1.233.9l.042.497-.042-.498zm-.07.003l-.007-.5.008.5zm-1.315-.772l.317-.387-.317.387zm-2.343-1.293l-.168-.471.168.47zm-.094.039l-.215-.452.215.452zm-.743 2.571l.498.05-.498-.05zm-.384 1.477l-.348-.36.348.36zm-.052.046l.323.382-.323-.382zm-4.646 0l.322-.382-.322.382zm-.051-.046l.348-.36-.348.36zm-.385-1.477l-.498.05.498-.05zm-.743-2.57l.215-.453-.215.452zm-.094-.04l-.167.471.167-.47zm-2.343 1.293l-.316-.387.316.387zm-1.316.772l-.007.5.007-.5zm-.069-.003l.042-.498-.042.498zm-1.232-.9l-.354.354.354-.353zM6.29 30.058l-.354.353.354-.353zm-.9-1.233l-.498.042.499-.042zm-.003-.07l-.5.008.5-.007zm.772-1.315l.387.317-.387-.317zm1.293-2.343l-.471.168.471-.168zm-.039-.094l.452-.215-.452.215zm-2.571-.743l-.05.498.05-.498zm-1.476-.384l-.36.348.36-.348zm-.047-.052l-.382.323.382-.323zm0-4.646l.382.322-.382-.322zm.047-.051l.359.348-.36-.348zm1.476-.385l.05.497-.05-.497zm2.572-.743l.451.215-.451-.215zm.038-.094l-.47-.167.47.168zM6.16 15.561l.387-.317-.016-.02-.017-.017-.354.354zm0 0l-.387.316.016.02.018.017.353-.353zm-.772-1.316l.5.007-.5-.007zm.004-.07l.498.043-.498-.042zm.899-1.232l-.354-.354.354.354zm1.154-1.154l.353.354-.353-.354zm1.232-.899l-.042-.498.042.498zm.07-.003l.007.5-.008-.5zm1.315.772l.326-.38-.009-.007-.317.387zm0 0l-.325.38.009.007.316-.387zm2.343 1.293l-.167-.472.167.472zm.095-.04l-.215-.451.215.452zm.742-2.57l.498.05-.498-.05zm.384-1.476l-.348-.359.348.359zm.052-.047l-.322-.382.322.382zm4.646 0l.323-.382-.323.382zm.934 1.473c-.04-.394-.073-.736-.134-1.008-.065-.285-.172-.556-.4-.777l-.696.718c.034.033.078.093.12.279.045.199.073.468.115.888l.995-.1zm.46 2.17c-.046-.022-.141-.085-.234-.462-.092-.376-.147-.915-.226-1.708l-.995.1c.076.76.137 1.385.25 1.846.113.46.311.906.775 1.127l.43-.904zm.047.019a.506.506 0 0 1-.047-.02l-.43.904c.046.022.093.041.141.058l.335-.942zm1.858-1.209c-.616.504-1.036.847-1.367 1.047-.332.201-.444.179-.491.162l-.336.942c.485.172.94-.003 1.345-.248.406-.247.891-.645 1.483-1.129l-.634-.774zm1.64-.885c-.317-.005-.584.11-.832.267-.236.15-.5.367-.808.618l.634.774c.326-.267.536-.438.709-.547.16-.101.234-.113.282-.112l.015-1zm.104.005a1.505 1.505 0 0 0-.104-.005l-.015 1c.012 0 .023 0 .035.002l.084-.997zm1.544 1.044c-.28-.28-.522-.524-.742-.695-.23-.18-.485-.322-.802-.349l-.084.997c.048.004.12.023.27.14.16.125.353.316.651.614l.707-.707zm1.154 1.154l-1.154-1.154-.707.707 1.154 1.154.707-.707zm1.044 1.544c-.027-.316-.168-.571-.348-.801-.172-.22-.415-.462-.696-.743l-.707.707c.298.299.49.49.614.651.118.15.136.223.14.27l.997-.084zm.005.104c0-.035-.002-.07-.005-.104l-.997.084.002.035 1-.015zm-.885 1.64c.251-.307.47-.572.618-.808.156-.247.272-.515.267-.832l-1 .015c0 .048-.01.122-.112.283-.109.172-.28.382-.547.709l.774.633zm-1.209 1.859c-.017-.048-.04-.16.162-.491.2-.331.543-.752 1.047-1.368l-.774-.633c-.484.59-.882 1.076-1.128 1.482-.246.405-.421.86-.249 1.345l.942-.335zm.02.047a.47.47 0 0 1-.02-.047l-.942.335c.017.048.037.095.058.14l.904-.428zm2.169.46c-.792-.08-1.332-.135-1.708-.227-.376-.092-.44-.188-.461-.233l-.904.429c.221.464.667.662 1.127.775.461.113 1.086.175 1.846.25l.1-.994zm1.785.533c-.22-.228-.491-.335-.776-.4a9.327 9.327 0 0 0-1.009-.133l-.1.994c.42.043.69.07.888.115.186.042.246.086.28.12l.717-.696zm.07.078a1.453 1.453 0 0 0-.07-.078l-.717.697a.519.519 0 0 1 .023.025l.764-.644zm.354 1.83c0-.397 0-.74-.033-1.018-.036-.29-.116-.57-.32-.813l-.765.645c.03.037.069.101.092.29.025.202.026.473.026.895h1zm0 1.631v-1.632h-1v1.632h1zm-.354 1.83c.205-.243.285-.523.32-.813.035-.277.034-.62.034-1.017h-1c0 .422-.001.693-.026.895-.023.189-.061.253-.092.29l.764.645zm-.07.077a1.51 1.51 0 0 0 .07-.077L28.3 23.5a.521.521 0 0 1-.023.026l.717.696zm-1.785.534c.395-.04.736-.073 1.009-.134.285-.065.555-.172.776-.4l-.717-.696c-.034.034-.094.078-.28.12-.198.045-.467.073-.887.115l.1.995zm-2.169.46c.022-.046.085-.141.462-.234.375-.092.915-.147 1.707-.226l-.1-.995c-.76.076-1.384.137-1.845.25-.46.113-.906.31-1.127.775l.903.43zm-.02.047a.498.498 0 0 1 .02-.048l-.903-.429a1.506 1.506 0 0 0-.058.142l.942.335zm1.21 1.858c-.505-.616-.847-1.037-1.048-1.367-.2-.332-.178-.444-.161-.491l-.942-.335c-.173.484.002.94.248 1.344.246.406.645.891 1.128 1.482l.774-.633zm.884 1.64c.005-.318-.11-.585-.267-.832-.149-.236-.367-.501-.618-.808l-.774.633c.267.327.438.537.547.709.102.16.113.235.112.283l1 .015zm-.005.104c.003-.035.005-.07.005-.104l-1-.015a.45.45 0 0 1-.002.035l.997.084zm-1.044 1.543c.28-.28.524-.522.696-.742.18-.23.321-.485.348-.8l-.997-.085c-.004.047-.022.12-.14.27-.125.16-.315.352-.614.65l.707.707zm-1.154 1.155l1.154-1.155-.707-.707-1.154 1.154.707.708zm-1.544 1.043c.317-.026.571-.168.802-.348.22-.172.462-.415.742-.695l-.707-.707c-.298.298-.49.489-.65.614-.15.117-.223.136-.271.14l.084.996zm-.104.005c.035 0 .07-.002.104-.005l-.084-.996a.448.448 0 0 1-.035.002l.015 1zm-1.64-.884c.308.25.572.469.808.618.248.156.515.271.832.267l-.015-1c-.048 0-.121-.011-.282-.113-.172-.108-.383-.28-.71-.546l-.633.774zm-1.858-1.21c.047-.016.16-.039.49.162.332.2.752.543 1.368 1.048l.634-.774c-.592-.484-1.077-.883-1.483-1.129-.405-.246-.86-.42-1.345-.248l.336.942zm-.047.02a.495.495 0 0 1 .047-.02l-.336-.941a1.494 1.494 0 0 0-.14.058l.429.903zm-.46 2.17c.08-.793.134-1.332.226-1.708.093-.377.188-.44.234-.462l-.43-.903c-.464.22-.662.666-.775 1.127-.113.46-.174 1.086-.25 1.846l.995.1zm-.534 1.786c.228-.221.335-.492.4-.777.061-.273.094-.614.134-1.01l-.995-.099c-.042.42-.07.69-.115.888-.042.186-.086.246-.12.28l.696.718zm-.077.07l.077-.07-.696-.718a.432.432 0 0 1-.026.023l.645.764zm-1.83.353c.397 0 .74 0 1.017-.033.29-.036.57-.116.813-.32l-.645-.765c-.037.03-.101.069-.29.092-.202.025-.473.026-.895.026v1zm-1.632 0h1.632v-1h-1.632v1zm-1.83-.354c.243.205.523.285.813.32.277.035.62.034 1.017.034v-1c-.422 0-.693-.001-.895-.026-.189-.023-.253-.061-.29-.092l-.645.764zm-.077-.07c.025.025.051.048.078.07l.644-.764a.473.473 0 0 1-.025-.023l-.697.717zm-.534-1.785c.04.395.073.736.135 1.009.064.285.171.555.4.776l.696-.717c-.035-.034-.079-.094-.12-.28-.046-.198-.073-.468-.115-.888l-.996.1zm-.46-2.17c.046.022.142.086.234.462.092.376.147.916.226 1.708l.995-.1c-.075-.76-.137-1.385-.25-1.846-.113-.46-.31-.906-.775-1.127l-.43.904zm-.046-.019a.479.479 0 0 1 .047.02l.429-.904a1.508 1.508 0 0 0-.141-.058l-.335.942zm-1.86 1.21c.617-.505 1.038-.848 1.369-1.048.331-.201.444-.179.49-.162l.336-.942c-.484-.172-.94.003-1.345.249-.406.246-.891.644-1.482 1.128l.633.774zm-1.64.884c.318.005.586-.11.833-.267.236-.149.5-.367.808-.618l-.633-.774c-.327.267-.537.438-.71.547-.16.102-.234.113-.282.112l-.015 1zm-.103-.005c.034.003.07.005.104.005l.015-1c-.012 0-.023 0-.035-.002l-.084.997zM7.09 31.564c.28.28.523.524.743.696.23.18.485.321.8.348l.085-.996c-.047-.004-.12-.023-.27-.14-.16-.126-.352-.317-.65-.615l-.708.707zM5.936 30.41l1.154 1.154.707-.707-1.154-1.154-.707.707zm-1.044-1.544c.027.317.169.571.349.802.171.22.415.462.695.742l.707-.707c-.298-.298-.49-.49-.614-.65-.118-.15-.136-.223-.14-.271l-.997.084zm-.005-.104c0 .035.002.07.005.104l.997-.084a.504.504 0 0 1-.002-.035l-1 .015zm.885-1.64c-.251.307-.469.572-.618.808-.156.248-.272.515-.267.832l1-.015c0-.048.01-.121.112-.282.109-.172.28-.383.547-.71l-.774-.633zm1.209-1.858c.017.047.04.16-.161.49-.201.332-.544.752-1.048 1.368l.774.634c.484-.592.882-1.077 1.129-1.483.245-.405.42-.86.248-1.345l-.942.335zm-.02-.047a.508.508 0 0 1 .02.047l.942-.336a1.497 1.497 0 0 0-.058-.14l-.903.428zm-2.169-.46c.793.08 1.332.134 1.708.226.376.093.44.188.462.233l.903-.429c-.22-.464-.667-.662-1.127-.775-.461-.113-1.086-.174-1.846-.25l-.1.995zm-1.785-.534c.221.228.492.335.777.4.272.061.614.094 1.008.134l.1-.995c-.42-.042-.69-.07-.888-.115-.186-.042-.246-.086-.28-.12l-.717.696zm-.07-.077c.022.026.046.052.07.077l.718-.696A.475.475 0 0 1 3.7 23.5l-.764.645zm-.353-1.83c0 .397-.001.74.033 1.017.035.29.115.57.32.813l.764-.645c-.03-.037-.069-.101-.092-.29-.025-.202-.026-.473-.026-.895h-1zm0-1.632v1.632h1v-1.632h-1zm.353-1.83c-.205.243-.285.523-.32.813-.034.277-.034.62-.034 1.017h1c0-.422.001-.693.026-.895.023-.189.061-.253.092-.29l-.764-.645zm.07-.076a1.26 1.26 0 0 0-.07.076l.764.645a.515.515 0 0 1 .024-.025l-.718-.697zm1.785-.535c-.394.04-.736.073-1.008.135-.285.064-.556.171-.777.4l.718.696c.033-.035.093-.079.279-.12.199-.046.468-.073.888-.116l-.1-.995zm2.17-.46c-.021.046-.085.142-.462.234-.375.092-.915.147-1.708.226l.1.995c.76-.076 1.385-.137 1.846-.25.46-.113.907-.31 1.127-.775l-.903-.43zm.02-.046a.487.487 0 0 1-.02.047l.903.429a1.54 1.54 0 0 0 .059-.14l-.943-.336zm-1.21-1.86c.505.617.847 1.038 1.048 1.368.201.332.178.444.161.492l.943.335c.172-.484-.003-.94-.249-1.345-.246-.406-.645-.891-1.129-1.483l-.774.633zm.034.037l.707-.707-.707.707zm-.919-1.677c-.005.318.11.585.267.832.15.236.367.501.618.808l.774-.633c-.267-.326-.438-.537-.547-.709-.101-.16-.113-.235-.112-.283l-1-.015zm.005-.103a1.5 1.5 0 0 0-.005.103l1 .015c0-.011 0-.023.002-.034l-.997-.084zm1.044-1.545c-.28.28-.524.523-.695.743-.18.23-.322.485-.349.802l.997.084c.004-.048.022-.12.14-.27.125-.16.316-.353.614-.652l-.707-.707zm1.154-1.153l-1.154 1.153.707.707 1.154-1.153-.707-.707zm1.544-1.044c-.316.027-.571.168-.801.348-.22.172-.462.415-.743.696l.707.707c.299-.299.49-.49.651-.615.15-.117.223-.136.27-.14l-.084-.996zm.104-.005c-.035 0-.07.002-.104.005l.084.996a.572.572 0 0 1 .035-.002l-.015-1zm1.64.885c-.307-.252-.572-.47-.808-.619-.247-.156-.515-.271-.832-.266l.015 1c.048-.001.122.01.283.112.172.108.382.28.709.547l.633-.774zm.009.007l-.651.76.65-.76zm1.85 1.201c-.048.017-.16.04-.491-.161-.331-.2-.752-.543-1.368-1.047l-.633.774c.591.483 1.076.882 1.482 1.128.405.246.86.42 1.345.249l-.335-.943zm.047-.019a.508.508 0 0 1-.047.02l.335.942a1.49 1.49 0 0 0 .141-.059l-.43-.903zm.46-2.169c-.08.792-.135 1.332-.227 1.707-.092.377-.188.44-.233.462l.43.903c.463-.22.662-.666.774-1.127.113-.46.175-1.085.25-1.845l-.995-.1zm.533-1.785c-.228.221-.335.492-.4.777-.06.272-.094.614-.134 1.008l.995.1c.043-.42.07-.69.115-.888.042-.186.086-.246.12-.28l-.696-.717zm.078-.07a1.505 1.505 0 0 0-.078.07l.697.718a.518.518 0 0 1 .025-.024l-.644-.764zm1.829-.353c-.396 0-.74-.001-1.017.033-.29.035-.57.115-.812.32l.644.764c.037-.03.101-.069.29-.092.202-.025.473-.025.895-.025v-1zm1.632 0h-1.632v1h1.632v-1zm1.83.353c-.243-.205-.523-.285-.813-.32-.277-.034-.62-.034-1.017-.034v1c.422 0 .693.001.895.026.189.023.253.061.29.092l.645-.764zm.077.07a1.464 1.464 0 0 0-.077-.07L18 9.201a.48.48 0 0 1 .026.024l.696-.718zM20.667 21.5A4.667 4.667 0 0 1 16 26.167v1a5.667 5.667 0 0 0 5.667-5.667h-1zM16 16.834a4.667 4.667 0 0 1 4.667 4.666h1A5.667 5.667 0 0 0 16 15.834v1zM11.334 21.5A4.667 4.667 0 0 1 16 16.834v-1a5.667 5.667 0 0 0-5.666 5.666h1zM16 26.167a4.667 4.667 0 0 1-4.666-4.667h-1A5.667 5.667 0 0 0 16 27.167v-1z" fill="#717783"/><path d="M23.8 39.209l.493.08-.493-.08zm.065-.831l-.489.106.489-.106zm-.157 2.314l.462-.19-.462.19zm.797.612l.064-.496-.064.496zm1.409-.473l.205.456-.205-.456zm.786-.278l.024.5-.024-.5zm.669.216l.31-.392-.31.392zm.476.684l-.433.25.433-.25zm.632 1.094l.433-.25-.433.25zm.355.755l.494-.073-.494.073zm-.148.687l.42.27-.42-.27zm-.634.542l-.292-.406.292.406zm-1.114.984l-.461-.193.461.193zm.131.996l-.396.305.396-.305zm1.33.662l.178-.468-.177.468zm.753.36l.337-.37-.337.37zm.32.625l.498-.058-.497.058zm-.146.82l-.483-.13.482.13zm-.328 1.22l.483.13-.482-.13zm-.282.785l-.402-.298.402.298zm-.59.382l.106.488-.107-.488zm-.832-.065l.08-.494-.015-.002-.017-.002-.048.498zm0 0l-.08.493.016.003.016.001.048-.497zm-1.483-.093l-.19-.462.19.462zm-.611.798l-.497-.064.497.064zm.472 1.408l-.456.206.456-.206zm.278.786l-.5.024.5-.024zm-.215.67l-.392-.312.392.311zm-.685.475l.25.433-.25-.433zm-1.094.632l-.25-.433.25.433zm-.755.355l.073.494-.073-.494zm-.687-.148l-.27.42.27-.42zm-.542-.634l.406-.292-.003-.004-.403.296zm0 0l-.406.292.003.005.403-.297zm-.983-1.114l.192-.461-.192.461zm-.997.131l.306.396-.306-.396zm-.662 1.331l-.467-.177.467.177zm-.36.753l-.369-.336.37.336zm-.624.32l-.058-.496.058.497zm-.821-.147l-.13.483.13-.483zm-1.22-.327l.129-.483-.13.483zm-.785-.283l.298-.401-.298.401zm-.381-.59l.488-.106-.488.106zm.065-.831l-.494-.081.494.08zm.092-1.484l-.463.19.463-.19zm-.798-.611l.064-.496-.064.496zm-1.408.473l-.206-.456-.01.004-.008.005.224.447zm0 0l.205.455.01-.004.009-.004-.224-.447zm-.787.278l.024.499-.024-.5zm-.668-.216l-.311.392.31-.392zm-.477-.684l.433-.25-.433.25zm-.631-1.095l-.433.25.433-.25zm-.355-.754l.494-.074-.494.074zm.148-.687l.42.27-.42-.27zm.633-.542l.292.406-.292-.406zm1.114-.984l.462.193-.462-.193zm-.13-.996l.395-.306-.396.306zm-1.331-.662l-.177.468.177-.468zm-.753-.36l.337-.37-.337.37zm-.32-.625l-.497.057.497-.057zm.757-2.826l-.402-.298.402.298zm.59-.38l-.106-.49.106.49zm.832.064l.129-.483-.024-.006-.025-.004-.08.493zm0 0l.129-.483-.13.483zm0 0l-.13.483.024.007.025.004.08-.494zm1.483.092l-.19-.462.19.462zm.612-.797l.496.064-.496-.064zm-.473-1.409l.455-.206-.455.206zm-.278-.787l.5-.023-.5.023zm.215-.668l-.392-.31.392.31zm.685-.476l.25.433-.25-.433zm1.094-.632l-.25-.433.25.433zm0 0l.25.433-.25-.433zm.755-.355l-.074-.495.074.495zm.687.148l.27-.42-.27.42zm.542.634l.406-.292-.406.292zm.983 1.114l.193-.462-.193.462zm.997-.132l-.306-.395.306.395zm.661-1.33l.468.177-.468-.177zm.36-.752l-.37-.336.37.336zm.625-.32l.057.496-.057-.497zm2.826.756l.298-.401-.298.401zm.81 1.503c.034-.209.063-.39.078-.54a1.525 1.525 0 0 0-.018-.479l-.978.213a.566.566 0 0 1 0 .17 8.12 8.12 0 0 1-.07.474l.987.162zm-.124 1.212c-.007-.017-.026-.086-.008-.303a13.4 13.4 0 0 1 .131-.91l-.986-.16c-.066.398-.12.726-.142.987-.021.255-.02.522.08.766l.925-.38zm.399.306a.5.5 0 0 1-.399-.306l-.925.38a1.5 1.5 0 0 0 1.196.918l.128-.992zm1.14-.433c-.384.173-.645.29-.846.363-.204.074-.276.072-.294.07l-.128.992c.263.034.52-.034.761-.121.246-.089.55-.226.917-.392l-.41-.912zm.967-.321c-.167.008-.32.051-.466.106-.143.053-.31.129-.502.215l.412.912a7.47 7.47 0 0 1 .44-.19.566.566 0 0 1 .164-.044l-.048-1zm1.004.323a1.5 1.5 0 0 0-1.004-.323l.048.999a.5.5 0 0 1 .334.107l.622-.783zm.598.826a9.12 9.12 0 0 0-.281-.468 1.524 1.524 0 0 0-.317-.358l-.622.783a.564.564 0 0 1 .108.132c.062.092.134.217.246.411l.866-.5zm.632 1.094l-.632-1.094-.866.5.632 1.094.866-.5zm.416.932a1.525 1.525 0 0 0-.152-.454c-.067-.136-.159-.294-.264-.477l-.866.5c.112.194.184.319.233.418a.57.57 0 0 1 .06.16l.99-.147zm-.221 1.03a1.5 1.5 0 0 0 .221-1.03l-.989.146a.5.5 0 0 1-.074.344l.841.54zm-.763.678c.171-.123.32-.23.437-.326.121-.1.235-.21.326-.352l-.842-.54a.565.565 0 0 1-.12.12 8.97 8.97 0 0 1-.385.286l.584.812zm-.944.77c.007-.017.041-.08.207-.22.163-.137.395-.304.737-.55l-.584-.812c-.328.236-.598.43-.798.599-.196.165-.383.354-.485.598l.922.385zm.065.498a.5.5 0 0 1-.066-.498l-.922-.385a1.5 1.5 0 0 0 .196 1.494l.792-.61zm1.112.5c-.394-.149-.662-.25-.854-.34-.197-.093-.247-.145-.258-.16l-.792.611c.162.21.392.344.624.453.237.111.548.229.926.372l.354-.936zm.912.457a1.525 1.525 0 0 0-.405-.255c-.139-.063-.31-.127-.507-.202l-.354.936c.21.079.345.13.445.176.097.044.131.07.148.085l.673-.74zm.48.938a1.5 1.5 0 0 0-.48-.938l-.673.74a.5.5 0 0 1 .16.313l.994-.115zm-.16 1.008c.054-.204.102-.38.131-.53.03-.154.049-.31.03-.478l-.994.115a.566.566 0 0 1-.017.17 8.06 8.06 0 0 1-.116.464l.965.259zm-.328 1.22l.328-1.22-.966-.26-.328 1.221.966.26zm-.364.953c.1-.135.163-.28.214-.428.049-.144.096-.32.15-.525l-.965-.259a7.965 7.965 0 0 1-.132.461.567.567 0 0 1-.07.155l.803.596zm-.885.572a1.5 1.5 0 0 0 .885-.572l-.803-.596a.5.5 0 0 1-.295.191l.213.977zm-1.019-.06c.209.034.39.064.54.078.157.015.315.018.479-.018l-.213-.977a.566.566 0 0 1-.17 0 7.948 7.948 0 0 1-.474-.07l-.162.987zm.033.004l.096-.995-.096.995zm-1.245-.127c.018-.007.086-.027.303-.009.212.018.494.064.91.132l.16-.987c-.398-.065-.726-.12-.986-.141-.256-.021-.522-.02-.767.08l.38.925zm-.306.399A.5.5 0 0 1 26 51.67l-.38-.925a1.5 1.5 0 0 0-.918 1.196l.992.128zm.433 1.139a13.32 13.32 0 0 1-.363-.845c-.073-.205-.072-.276-.07-.294l-.992-.128c-.033.262.035.52.122.76.088.247.225.55.391.918l.912-.411zm.322.967a1.528 1.528 0 0 0-.107-.466 8.54 8.54 0 0 0-.215-.501l-.912.41c.093.206.152.337.19.44a.55.55 0 0 1 .045.165l.998-.048zm-.324 1.004a1.5 1.5 0 0 0 .324-1.004l-1 .048a.5.5 0 0 1-.107.334l.783.622zm-.826.598c.183-.105.342-.197.468-.281.13-.087.254-.185.358-.317l-.783-.622a.565.565 0 0 1-.132.108 7.97 7.97 0 0 1-.41.246l.5.866zm-1.094.632l1.094-.632-.5-.866-1.094.632.5.866zm-.932.416c.167-.024.313-.082.454-.152a8.3 8.3 0 0 0 .478-.264l-.5-.866c-.195.112-.32.184-.419.233a.566.566 0 0 1-.16.06l.147.99zm-1.03-.221a1.5 1.5 0 0 0 1.03.221l-.146-.989a.5.5 0 0 1-.344-.074l-.54.842zm-.678-.763c.123.172.23.32.327.438.1.12.21.234.35.325l.541-.842a.569.569 0 0 1-.12-.12 8.063 8.063 0 0 1-.286-.385l-.812.584zm.003.005l.806-.593-.806.593zm-.773-.95c.017.008.08.042.22.209.137.162.305.394.55.736l.812-.584c-.236-.328-.43-.598-.598-.798-.166-.196-.355-.383-.599-.485l-.385.923zm-.498.066a.5.5 0 0 1 .498-.065l.385-.923a1.5 1.5 0 0 0-1.494.197l.61.791zm-.5 1.112c.149-.394.25-.661.341-.854.093-.197.144-.246.159-.258l-.611-.791c-.21.161-.343.391-.453.623-.111.237-.228.548-.371.926l.935.354zm-.457.912c.113-.124.19-.262.255-.405.063-.138.127-.31.202-.507l-.935-.354c-.08.21-.131.345-.177.446a.569.569 0 0 1-.085.148l.74.672zm-.938.481a1.5 1.5 0 0 0 .938-.48l-.74-.673a.5.5 0 0 1-.313.16l.115.993zm-1.008-.16c.204.054.381.101.53.13.154.031.311.05.478.03l-.115-.993a.566.566 0 0 1-.169-.017 8.101 8.101 0 0 1-.465-.117l-.259.966zm-1.22-.328l1.22.327.26-.966-1.221-.327-.26.966zm-.953-.364c.135.1.28.163.428.213.144.05.32.096.525.151l.259-.966a8.167 8.167 0 0 1-.461-.131.564.564 0 0 1-.155-.07l-.596.803zm-.572-.886c.077.355.28.67.572.886l.596-.803a.5.5 0 0 1-.19-.295l-.978.212zm.06-1.018c-.034.209-.064.389-.078.54-.015.157-.018.314.018.478l.977-.212a.566.566 0 0 1 0-.17c.01-.11.034-.253.07-.475l-.987-.161zm.123-1.212c.007.017.027.085.009.302a13.46 13.46 0 0 1-.132.91l.987.161c.065-.398.12-.727.141-.987.022-.256.02-.522-.08-.767l-.925.38zm-.398-.306a.5.5 0 0 1 .398.306l.925-.38a1.5 1.5 0 0 0-1.196-.918l-.127.992zm-1.14.432c.384-.173.645-.29.845-.362.205-.074.276-.073.295-.07l.127-.992c-.262-.034-.52.034-.76.12-.247.09-.55.227-.918.393l.411.911zm.019-.008l-.448-.894.448.894zm-.987.33c.168-.008.32-.051.467-.106.142-.053.309-.129.501-.216l-.411-.911a8.126 8.126 0 0 1-.44.19.567.567 0 0 1-.164.044l.047.999zm-1.003-.323a1.5 1.5 0 0 0 1.003.323l-.047-.999a.5.5 0 0 1-.335-.108l-.621.784zm-.599-.827c.106.184.197.342.282.468.087.13.185.254.317.359l.621-.784a.567.567 0 0 1-.107-.131 8.04 8.04 0 0 1-.247-.412l-.866.5zm-.631-1.094l.631 1.094.866-.5-.631-1.094-.866.5zm-.417-.931c.025.166.083.313.152.454.067.136.159.294.265.477l.866-.5a8.088 8.088 0 0 1-.233-.419.564.564 0 0 1-.06-.159l-.99.147zm.222-1.03a1.5 1.5 0 0 0-.222 1.03l.99-.147a.5.5 0 0 1 .073-.343l-.841-.54zm.763-.678a9.33 9.33 0 0 0-.438.326c-.12.1-.234.21-.325.351l.841.54a.563.563 0 0 1 .12-.12 8.01 8.01 0 0 1 .385-.285l-.583-.812zm.944-.77c-.007.017-.042.079-.208.22-.163.137-.395.304-.736.55l.583.812c.328-.236.599-.43.798-.599.196-.165.384-.354.486-.598l-.923-.386zm-.066-.499a.5.5 0 0 1 .066.498l.923.386a1.5 1.5 0 0 0-.197-1.495l-.792.611zm-1.111-.5c.394.15.661.25.854.342.196.092.246.144.257.158l.792-.61c-.162-.21-.392-.344-.624-.453-.236-.112-.548-.229-.925-.372l-.354.936zm-.912-.456c.124.112.262.19.405.254.138.063.31.128.507.203l.354-.936c-.21-.08-.345-.13-.446-.176a.564.564 0 0 1-.147-.085l-.673.74zm-.481-.939a1.5 1.5 0 0 0 .48.939l.674-.74a.5.5 0 0 1-.16-.313l-.994.114zm.161-1.007c-.055.204-.102.38-.132.53-.03.154-.048.31-.03.477l.994-.114a.566.566 0 0 1 .017-.17c.022-.108.059-.247.117-.464l-.966-.259zm.327-1.22l-.327 1.22.966.259.327-1.22-.966-.26zm.364-.954c-.1.135-.162.28-.213.429-.05.144-.096.32-.151.525l.966.258a8.63 8.63 0 0 1 .131-.46.565.565 0 0 1 .07-.156l-.803-.596zm.886-.571a1.5 1.5 0 0 0-.886.571l.803.596a.5.5 0 0 1 .295-.19l-.212-.977zm1.018.06c-.208-.034-.389-.064-.54-.079a1.522 1.522 0 0 0-.478.019l.212.977a.568.568 0 0 1 .17 0c.111.01.253.033.475.07l.161-.987zm.049.01l-.259.966.259-.966zm0 0l-.259.966.259-.966zm1.164.113c-.017.007-.086.027-.303.008a13.381 13.381 0 0 1-.91-.131l-.161.987c.399.065.727.119.988.14.255.022.521.021.766-.08l-.38-.924zm.306-.399a.5.5 0 0 1-.306.399l.38.925a1.5 1.5 0 0 0 .918-1.196l-.992-.128zm-.433-1.14c.173.384.29.645.363.846.073.205.072.276.07.294l.992.128c.033-.262-.034-.52-.121-.761-.089-.246-.226-.55-.393-.918l-.911.412zm-.322-.968c.008.168.051.32.106.467.053.142.129.309.216.502l.912-.412a8.014 8.014 0 0 1-.19-.44.567.567 0 0 1-.045-.164l-.999.047zm.323-1.003a1.5 1.5 0 0 0-.323 1.003l1-.047a.5.5 0 0 1 .107-.334l-.784-.622zm.827-.599c-.183.106-.342.197-.468.282-.13.087-.254.186-.359.317l.784.622a.566.566 0 0 1 .132-.108c.092-.062.216-.134.41-.246l-.5-.867zm1.094-.631l-1.094.631.5.867 1.094-.632-.5-.866zm0 0l.5.866-.5-.866zm.931-.417a1.527 1.527 0 0 0-.453.152c-.137.068-.295.16-.478.265l.5.866c.194-.113.32-.184.419-.233a.567.567 0 0 1 .159-.06l-.147-.99zm1.03.222a1.5 1.5 0 0 0-1.03-.222l.147.99a.5.5 0 0 1 .343.073l.54-.84zm.679.763c-.124-.172-.23-.32-.327-.438-.1-.12-.21-.234-.351-.325l-.54.841a.568.568 0 0 1 .12.12c.07.086.154.203.286.386l.812-.584zm.77.944c-.017-.007-.08-.042-.22-.208a13.388 13.388 0 0 1-.55-.736l-.812.584c.235.328.43.598.598.798.166.196.354.383.598.485l.386-.923zm.498-.065a.5.5 0 0 1-.498.065l-.386.923a1.5 1.5 0 0 0 1.495-.197l-.61-.791zm.5-1.112c-.15.394-.25.661-.341.854-.093.197-.144.246-.159.258l.611.791c.21-.162.343-.391.453-.623.11-.237.228-.548.371-.926l-.935-.354zm.457-.911c-.113.124-.19.262-.255.404-.063.139-.128.31-.202.507l.935.354c.08-.21.13-.345.177-.445a.564.564 0 0 1 .084-.148l-.74-.672zm.938-.482a1.5 1.5 0 0 0-.938.482l.74.672a.5.5 0 0 1 .312-.16l-.114-.994zm1.007.162c-.204-.055-.38-.103-.53-.132a1.526 1.526 0 0 0-.477-.03l.114.994a.566.566 0 0 1 .17.017c.108.021.247.058.464.117l.259-.966zm1.22.327l-1.22-.327-.259.965 1.22.328.26-.966zm.954.364c-.135-.1-.28-.163-.429-.214a8.406 8.406 0 0 0-.524-.15l-.26.966c.218.058.357.095.462.131.1.034.137.056.155.07l.596-.803zm.572.885a1.5 1.5 0 0 0-.572-.885l-.596.803a.5.5 0 0 1 .19.295l.977-.213zm-1.473 9.635a3.5 3.5 0 0 1-4.286 2.475l-.259.966a4.5 4.5 0 0 0 5.511-3.182l-.966-.259zm-2.474-4.286a3.5 3.5 0 0 1 2.474 4.286l.966.26a4.5 4.5 0 0 0-3.182-5.512l-.258.966zm-4.287 2.474a3.5 3.5 0 0 1 4.287-2.474l.258-.966a4.5 4.5 0 0 0-5.51 3.182l.965.258zm2.475 4.287a3.5 3.5 0 0 1-2.475-4.287l-.966-.258a4.5 4.5 0 0 0 3.182 5.511l.259-.966z" fill="#F2F3F5"/><path d="M22.5 4.5h57A3.5 3.5 0 0 1 83 8v8.5H19V8a3.5 3.5 0 0 1 3.5-3.5z" fill="#fff"/><rect x="36.5" y="9" width="29" height="3" rx="1" fill="#CCCFD5"/><path d="M22.5 4.5h57A3.5 3.5 0 0 1 83 8v8.5H19V8a3.5 3.5 0 0 1 3.5-3.5z" stroke="#717783"/><path d="M19 16.5h64V56a2.5 2.5 0 0 1-2.5 2.5h-59A2.5 2.5 0 0 1 19 56V16.5z" fill="#fff" stroke="#717783"/><path fill="#fff" d="M26.5 24h6v6h-6zm10.75 0h6v6h-6z"/><path fill="#CCCFD5" d="M48 24h6v6h-6zm10.75 0h6v6h-6z"/><path fill="#F2F3F5" d="M69.5 24h6v6h-6zm-43 11h6v6h-6z"/><path fill="#CCCFD5" d="M37.25 35h6v6h-6zM48 35h6v6h-6zm10.75 0h6v6h-6z"/><path fill="#F2F3F5" d="M69.5 35h6v6h-6zm-43 11h6v6h-6z"/><path fill="#CCCFD5" d="M37.25 46h6v6h-6zM48 46h6v6h-6zm10.75 0h6v6h-6z"/><path fill="#fff" d="M69.5 46h6v6h-6z"/><path d="M76.665 76.52l2.82-30.663a.5.5 0 0 0-.704-.5l-27.922 12.69a.5.5 0 0 0-.019.902l10.296 5.217a.5.5 0 0 1 .191.72l-5.94 9.021a.5.5 0 0 0 .12.676l3.959 2.944a.5.5 0 0 0 .706-.111l6.28-8.833a.5.5 0 0 1 .755-.07l8.613 8.32a.5.5 0 0 0 .845-.314z" fill="#E48038" stroke="#E48038"/></svg>