<svg width="83" height="82" viewBox="0 0 83 82" fill="none" xmlns="http://www.w3.org/2000/svg"><rect x="12" y="9.5" width="49" height="66" rx="3.5" fill="#fff"/><path fill="#CCCFD5" d="M19.5 17h34v3h-34zm0 7h34v3h-34zm0 7h34v3h-34zm0 7h34v3h-34zm0 7h34v3h-34zm0 7h17v3h-17z"/><rect x="12" y="9.5" width="49" height="66" rx="3.5" stroke="#F2F3F5"/><rect x="7" y="5.5" width="49" height="66" rx="3.5" fill="#fff"/><path fill="#CCCFD5" d="M14.5 13h34v3h-34zm0 7h34v3h-34zm0 7h34v3h-34zm0 7h34v3h-34zm0 7h34v3h-34zm0 7h17v3h-17z"/><rect x="7" y="5.5" width="49" height="66" rx="3.5" stroke="#CCCFD5"/><rect x="1" y=".5" width="49" height="66" rx="3.5" fill="#fff"/><path fill="#CCCFD5" d="M8.5 8h34v3h-34zm0 7h34v3h-34zm0 7h34v3h-34zm0 7h34v3h-34zm0 7h34v3h-34zm0 7h17v3h-17z"/><rect x="1" y=".5" width="49" height="66" rx="3.5" stroke="#717783"/><path d="M58.5 35l4.218 3.157 5.137-1.168 2.569 4.6 5.168 1.021.476 5.247 4.306 3.036-1.7 4.986 2.7 4.525-3.58 3.865.625 5.231-4.844 2.074-1.556 5.033-5.268-.075-3.469 3.965-4.782-2.211-4.782 2.211-3.47-3.965-5.267.075-1.556-5.033L38.58 69.5l.626-5.231-3.581-3.865 2.7-4.525-1.7-4.986 4.306-3.036.476-5.247 5.168-1.022 2.57-4.6 5.136 1.17L58.5 35z" fill="#E48038"/><path d="M54.166 57v-4.333a4.333 4.333 0 0 1 8.667 0V57" stroke="#fff" stroke-width="2" stroke-linecap="round"/><path d="M49.528 57.418c.145-1.741.217-2.611.791-3.14.575-.528 1.448-.528 3.195-.528h9.972c1.747 0 2.62 0 3.195.528.574.529.646 1.399.791 3.14l.598 7.166c.084 1.013.126 1.52-.17 1.843-.298.323-.806.323-1.824.323H50.924c-1.017 0-1.526 0-1.823-.323-.297-.323-.255-.83-.17-1.843l.597-7.166z" fill="#fff"/></svg>