<svg width="82" height="82" viewBox="0 0 82 82" fill="none" xmlns="http://www.w3.org/2000/svg"><path d="M5.017 17.253l57.955-15.53A3.5 3.5 0 0 1 67.26 4.2l3.235 12.074-64.717 17.34L2.542 21.54a3.5 3.5 0 0 1 2.475-4.287z" fill="#fff"/><circle cx="11.434" cy="23.816" r=".5" transform="rotate(-15 11.434 23.816)" fill="#fff"/><circle cx="16.263" cy="22.521" r=".5" transform="rotate(-15 16.263 22.521)" fill="#fff"/><circle cx="21.093" cy="21.228" r=".5" transform="rotate(-15 21.093 21.228)" fill="#fff"/><path d="M5.017 17.253l57.955-15.53A3.5 3.5 0 0 1 67.26 4.2l3.235 12.074-64.717 17.34L2.542 21.54a3.5 3.5 0 0 1 2.475-4.287z" stroke="#F2F3F5"/><path d="M5.518 32.648l64.717-17.341 10.482 39.12a2.5 2.5 0 0 1-1.767 3.062L19.062 73.535A2.5 2.5 0 0 1 16 71.768L5.518 32.648z" fill="#fff" stroke="#F2F3F5"/><path d="M19.505 1.518l57.955 15.53a3.5 3.5 0 0 1 2.475 4.286L76.7 33.408l-64.717-17.34 3.235-12.075a3.5 3.5 0 0 1 4.287-2.475z" fill="#fff"/><circle cx="21.781" cy="10.41" r=".5" transform="rotate(15 21.78 10.41)" fill="#fff"/><circle cx="26.61" cy="11.705" r=".5" transform="rotate(15 26.61 11.705)" fill="#fff"/><circle cx="31.44" cy="12.999" r=".5" transform="rotate(15 31.44 12.999)" fill="#fff"/><path d="M19.505 1.518l57.955 15.53a3.5 3.5 0 0 1 2.475 4.286L76.7 33.408l-64.717-17.34 3.235-12.075a3.5 3.5 0 0 1 4.287-2.475z" stroke="#CCCFD5"/><path d="M12.242 15.101l64.717 17.341-10.482 39.12a2.5 2.5 0 0 1-3.062 1.768L3.527 57.283a2.5 2.5 0 0 1-1.767-3.062l10.482-39.12z" fill="#fff" stroke="#CCCFD5"/><path d="M11.5 8.5h60A3.5 3.5 0 0 1 75 12v12.5H8V12a3.5 3.5 0 0 1 3.5-3.5z" fill="#fff"/><circle cx="16" cy="16.5" r=".5" fill="#fff"/><circle cx="21" cy="16.5" r=".5" fill="#fff"/><circle cx="26" cy="16.5" r=".5" fill="#fff"/><path d="M11.5 8.5h60A3.5 3.5 0 0 1 75 12v12.5H8V12a3.5 3.5 0 0 1 3.5-3.5z" stroke="#717783"/><path d="M8 23.5h67V64a2.5 2.5 0 0 1-2.5 2.5h-62A2.5 2.5 0 0 1 8 64V23.5z" fill="#fff" stroke="#717783"/><path d="M39.268 57c.77-1.333 2.694-1.333 3.464 0l9.96 17.25c.77 1.333-.193 3-1.733 3H31.041c-1.54 0-2.502-1.667-1.732-3L39.268 57z" fill="#CCCFD5"/><path fill="#CCCFD5" d="M4.5 59.411L76.944 40l1.553 5.795L6.053 65.207z"/><path d="M54.05 38.497l9.491 5.074c.377.202.566.303.75.259a.6.6 0 0 0 .026-.008c.182-.054.295-.235.521-.598l5.682-9.14a5.877 5.877 0 0 0-1.445-7.79l-.443-.336c-2.892-2.188-7.077-.57-7.743 2.997a.61.61 0 0 1-1.063.284c-2.36-2.755-6.793-2.065-8.203 1.277l-.216.512a5.877 5.877 0 0 0 2.643 7.469z" fill="#D91818" stroke="#D91818" stroke-width="2"/><path d="M13.596 57.018L9.726 42.83a.5.5 0 0 1 .608-.615l14.158 3.647a.5.5 0 0 1 .175.884l-4.052 3.04a.5.5 0 0 0-.064.742l3.413 3.614a.5.5 0 0 1 0 .686l-1.389 1.47a.5.5 0 0 1-.711.015L18.39 52.94a.5.5 0 0 0-.747.057l-3.167 4.191a.5.5 0 0 1-.881-.17z" fill="#000" stroke="#000"/></svg>