<svg width="83" height="82" viewBox="0 0 83 82" fill="none" xmlns="http://www.w3.org/2000/svg"><path d="M19.5 29.082l3.08-4.741.205-.316.36.11 5.407 1.652-.689-5.611-.046-.374.347-.147 5.204-2.21-4.134-3.856-.276-.257.171-.335 2.566-5.038-5.646-.296-.376-.02-.084-.367-1.273-5.509-4.515 3.402-.301.227-.3-.227-4.516-3.402-1.272 5.509-.085.367-.377.02-5.645.296 2.566 5.038.17.335-.275.257-4.134 3.856 5.204 2.21.347.147-.046.374-.689 5.612 5.407-1.653.36-.11.206.316 3.079 4.741z" stroke="#CCCFD5"/><rect x="1" y="33.5" width="25" height="25" rx="12.5" fill="#fff"/><path d="M19.296 52.335c-.342-.956-1.096-1.802-2.143-2.405-1.048-.603-2.332-.93-3.653-.93-1.32 0-2.605.327-3.653.93-1.047.603-1.8 1.449-2.143 2.405" stroke="#CCCFD5" stroke-linecap="round"/><circle cx="13.5" cy="43" r="3" stroke="#CCCFD5" stroke-linecap="round"/><rect x="1" y="33.5" width="25" height="25" rx="12.5" stroke="#717783"/><rect x="57" y=".5" width="25" height="25" rx="12.5" fill="#fff"/><path d="M75.296 19.335c-.342-.957-1.096-1.802-2.143-2.405-1.048-.603-2.332-.93-3.653-.93-1.32 0-2.605.327-3.653.93-1.047.603-1.8 1.448-2.143 2.405" stroke="#CCCFD5" stroke-linecap="round"/><circle cx="69.5" cy="10" r="3" stroke="#CCCFD5" stroke-linecap="round"/><rect x="57" y=".5" width="25" height="25" rx="12.5" stroke="#717783"/><rect x="17" y="6.5" width="49" height="49" rx="24.5" fill="#fff"/><path d="M55.602 45.561c.59-.123.94-.737.683-1.282-1.024-2.171-2.822-4.08-5.197-5.498-2.75-1.641-6.12-2.531-9.588-2.531-3.467 0-6.837.89-9.588 2.531-2.375 1.418-4.173 3.327-5.197 5.498-.258.544.093 1.16.683 1.282l5.941 1.238a40 40 0 0 0 16.322 0l5.941-1.238z" fill="#000"/><circle cx="41.5" cy="24" r="8.75" fill="#000"/><rect x="17" y="6.5" width="49" height="49" rx="24.5" stroke="#717783"/><path d="M59.5 82l3.49-7.707 6.49 5.43-.2-8.46 8.202 2.077-3.85-7.534 8.291-1.688L75.186 59l6.737-5.118-8.29-1.688 3.85-7.534-8.203 2.076.2-8.458-6.49 5.43L59.5 36l-3.49 7.707-6.49-5.43.2 8.46-8.202-2.077 3.85 7.534-8.291 1.688L43.814 59l-6.737 5.118 8.29 1.688-3.85 7.534 8.203-2.076-.2 8.458 6.49-5.43L59.5 82z" fill="#E48038"/></svg>