<svg width="1204" height="895" viewBox="0 0 1204 895" fill="none" xmlns="http://www.w3.org/2000/svg"><ellipse rx="455.898" ry="246.661" transform="matrix(-.83704 .54714 .60004 .79997 579.176 447.288)" stroke="#CCCFD5" stroke-width="4" stroke-linecap="round" stroke-dasharray="0.5 15"/><circle cx="225.5" cy="725.5" r="13" fill="#fff" stroke="#CCCFD5"/><path d="M.5 125c0-6.351 5.149-11.5 11.5-11.5h561c6.351 0 11.5 5.149 11.5 11.5v34.5H.5V125z" fill="#000"/><circle cx="35.5" cy="136.5" r="5.5" fill="#717783"/><circle cx="58.5" cy="136.5" r="5.5" fill="#717783"/><circle cx="81.5" cy="136.5" r="5.5" fill="#717783"/><path d="M.5 125c0-6.351 5.149-11.5 11.5-11.5h561c6.351 0 11.5 5.149 11.5 11.5v34.5H.5V125z" stroke="#717783"/><path d="M.5 159.5h584V485a7.5 7.5 0 0 1-7.5 7.5H8A7.5 7.5 0 0 1 .5 485V159.5z" fill="#000" stroke="#717783"/><circle cx="168" cy="214" r="1" fill="#fff"/><circle cx="178.5" cy="218.5" r="2.5" fill="#fff"/><circle cx="221" cy="318" r="4" fill="#fff"/><circle cx="188.5" cy="335.5" r="2.5" fill="#fff"/><circle cx="231.5" cy="350.5" r="1.5" fill="#fff"/><path d="M139.944 332.951a4.717 4.717 0 1 1-9.434 0 4.717 4.717 0 0 1 9.434 0zm-51.275 22.766a4.307 4.307 0 1 1-8.614 0 4.307 4.307 0 0 1 8.614 0zm36.097 13.537a2.871 2.871 0 1 1-5.742 0 2.871 2.871 0 0 1 5.742 0z" fill="#fff"/><path d="M130.715 342.59h-4.307c-.41-2.871-1.436-5.537-3.077-7.588l3.077-3.282c.82-.821.82-2.256 0-3.077-.821-.82-2.256-.82-3.077 0l-3.076 3.077c-2.256-1.641-4.718-2.872-7.589-3.077v-4.512a2.276 2.276 0 0 0-2.256-2.256 2.276 2.276 0 0 0-2.256 2.256v4.512c-2.872.411-5.538 1.436-7.589 3.077l-3.282-3.077c-.82-.82-2.256-.82-3.281 0-.82.821-.82 2.256 0 3.077l3.076 3.076c-1.64 2.257-2.871 4.718-3.076 7.589h-4.307a2.276 2.276 0 0 0-2.256 2.256 2.276 2.276 0 0 0 2.256 2.256h4.512c.41 2.872 1.436 5.538 3.076 7.589l-3.076 3.077c-.82.82-.82 2.256 0 3.076.82.821 2.256.821 3.076 0l3.077-3.076c2.256 1.641 4.717 2.871 7.589 3.076v4.513a2.276 2.276 0 0 0 2.256 2.256 2.277 2.277 0 0 0 2.256-2.256v-4.513c2.871-.41 5.538-1.435 7.589-3.076l3.076 3.076c.821.821 2.256.821 3.077 0 .82-.82.82-2.256 0-3.076l-3.077-3.077c1.641-2.256 2.872-4.717 3.077-7.589h4.512a2.275 2.275 0 0 0 2.256-2.256c0-1.025-1.025-2.051-2.256-2.051zm-25.843 11.486c-1.436 0-2.666-1.231-2.666-2.666 0-1.436 1.23-2.667 2.666-2.667s2.666 1.231 2.666 2.667c0 1.435-1.23 2.666-2.666 2.666zm4.512-10.665c-2.461 0-4.512-2.051-4.512-4.513 0-2.461 2.051-4.512 4.512-4.512 2.462 0 4.513 2.051 4.513 4.512 0 2.462-2.051 4.513-4.513 4.513zm9.64 7.588c-1.436 0-2.666-1.23-2.666-2.666s1.23-2.666 2.666-2.666 2.667 1.23 2.667 2.666-1.231 2.666-2.667 2.666z" fill="#D91818"/><rect x="70" y="307" width="80" height="80" rx="40" stroke="#06C569" stroke-width="2" stroke-linecap="round" stroke-dasharray="0.2 10"/><path d="M279.452 201.918h-1.438c-.137-.959-.479-1.849-1.027-2.534l1.027-1.096a.746.746 0 0 0 0-1.028.744.744 0 0 0-1.027 0l-1.028 1.028c-.753-.548-1.575-.959-2.534-1.028v-1.507a.76.76 0 0 0-.754-.753.76.76 0 0 0-.753.753v1.507c-.959.137-1.849.48-2.534 1.028l-1.096-1.028c-.274-.274-.754-.274-1.096 0a.746.746 0 0 0 0 1.028l1.027 1.027c-.548.754-.959 1.576-1.027 2.535h-1.439a.76.76 0 0 0-.753.753.76.76 0 0 0 .753.753h1.507c.137.959.48 1.85 1.028 2.535l-1.028 1.027a.746.746 0 0 0 0 1.028.746.746 0 0 0 1.028 0l1.027-1.028c.754.548 1.576.959 2.535 1.028v1.506a.76.76 0 0 0 .753.754.76.76 0 0 0 .753-.754v-1.506c.959-.137 1.85-.48 2.535-1.028l1.027 1.028a.746.746 0 0 0 1.028 0 .746.746 0 0 0 0-1.028l-1.028-1.027c.548-.754.959-1.576 1.028-2.535h1.506a.76.76 0 0 0 .754-.753c0-.343-.343-.685-.754-.685zm-8.63 3.836a.907.907 0 0 1-.89-.891c0-.479.411-.89.89-.89.48 0 .891.411.891.89 0 .48-.411.891-.891.891zm1.507-3.562a1.52 1.52 0 0 1-1.507-1.507 1.52 1.52 0 0 1 1.507-1.507 1.52 1.52 0 0 1 1.507 1.507 1.52 1.52 0 0 1-1.507 1.507zm3.219 2.534a.907.907 0 0 1-.89-.89c0-.48.411-.891.89-.891.48 0 .891.411.891.891 0 .479-.411.89-.891.89z" fill="#fff"/><rect x="260" y="190" width="25.206" height="25.206" rx="12.603" stroke="#06C569" stroke-width="2" stroke-linecap="round" stroke-dasharray="0.2 10"/><path d="M62 264.642l12.14-8.001c4.719-3.11 11.076-1.695 14.03 3.124l2.951 4.816c4.137 6.75 14.105 6.245 17.537-.889l10.59-22.007c4.019-8.353 16.255-7.216 18.667 1.734l11.396 42.293c1.528 5.671 7.592 8.81 13.105 6.784l41.416-15.221a10 10 0 0 1 7.074.066l45.618 17.74c5.526 2.149 11.697-.954 13.267-6.671l9.771-35.581c2.852-10.386 17.851-9.543 19.522 1.097l3.002 19.118c1.572 10.008 15.852 10.37 17.929.454l.599-2.863c1.873-8.943 14.617-9.016 16.592-.095 1.727 7.804 12.301 9.11 15.876 1.961l3.929-7.859" stroke="#fff" stroke-width="6" stroke-linecap="round" stroke-linejoin="round"/><circle cx="206.91" cy="264.17" r="49.866" fill="#000" stroke="#0045FF" stroke-width="6"/><g clip-path="url(#a)" stroke="#717783"><path d="M170.208 212.72v103.844m12-103.844v103.844m12-103.844v103.844m12-103.844v103.844m12-103.844v103.844m12-103.844v103.844m12-103.844v103.844m12-103.844v103.844"/></g><g clip-path="url(#b)" stroke="#717783"><path d="M258.359 226.052H154.515m103.844 13H154.515m103.844 13H154.515m103.844 13H154.515m103.844 13H154.515m103.844 13H154.515m103.844 13H154.515"/></g><circle cx="206.91" cy="264.17" r="49.866" stroke="#0045FF" stroke-width="6"/><rect x="168.204" y="260.394" width="21" height="21" rx="2" fill="#E48038"/><rect x="195.581" y="243.401" width="21" height="21" rx="2" fill="#E48038"/><rect x="222.958" y="254.73" width="21" height="21" rx="2" fill="#E48038"/><path d="M239.951 304.278l8.011-8.011 38.717 38.717a5.665 5.665 0 0 1-8.011 8.011l-38.717-38.717z" fill="#0045FF"/><path stroke="#CCCFD5" stroke-linecap="round" stroke-dasharray="0.5 5" d="M321.77 446.331l21.561-44.101m40.372-10.308l54.219 43.375"/><rect x="273.5" y="454.5" width="61" height="61" rx="30.5" fill="#fff"/><path d="M315.205 496.832c.589-.123.94-.739.67-1.277-.844-1.677-2.262-3.151-4.113-4.256-2.227-1.329-4.955-2.049-7.762-2.049-2.807 0-5.535.72-7.762 2.049-1.851 1.105-3.269 2.579-4.112 4.256-.271.538.08 1.154.67 1.277l3.043.634a39.994 39.994 0 0 0 16.322 0l3.044-.634z" fill="#E48038"/><ellipse cx="304" cy="479.333" rx="7.083" ry="7.083" fill="#E48038"/><rect x="273.5" y="454.5" width="61" height="61" rx="30.5" stroke="#717783"/><rect x="433.5" y="429.5" width="81" height="81" rx="40.5" fill="#fff"/><path d="M492.449 488.655c.59-.123.94-.737.696-1.287-1.291-2.914-3.657-5.477-6.817-7.363-3.537-2.111-7.87-3.255-12.328-3.255-4.457 0-8.79 1.144-12.327 3.255-3.16 1.886-5.526 4.449-6.817 7.363-.244.55.106 1.164.696 1.287l10.288 2.144a39.99 39.99 0 0 0 16.321 0l10.288-2.144z" fill="#E48038"/><circle cx="474" cy="461" r="11.25" fill="#E48038"/><rect x="433.5" y="429.5" width="81" height="81" rx="40.5" stroke="#717783"/><rect x="339.5" y="356.5" width="39" height="39" rx="19.5" fill="#fff"/><path d="M366.652 384.405c.552-.115.882-.693.607-1.187-.606-1.087-1.56-2.043-2.78-2.771-1.572-.939-3.498-1.447-5.479-1.447-1.981 0-3.907.508-5.479 1.447-1.22.728-2.174 1.684-2.78 2.771-.275.494.055 1.072.607 1.187a37.5 37.5 0 0 0 15.304 0z" fill="#E48038"/><circle cx="359" cy="372" r="5" fill="#E48038"/><rect x="339.5" y="356.5" width="39" height="39" rx="19.5" stroke="#717783"/><path d="M584.5 241.5l-17.571-17.571a10.001 10.001 0 0 0-7.071-2.929H520" stroke="#F2F3F5" stroke-width="2" stroke-linecap="round"/><circle cx="514" cy="221" r="5" stroke="#F2F3F5" stroke-width="2"/><path d="M585 255h-44" stroke="#F2F3F5" stroke-width="2"/><circle cx="535" cy="255" r="5" stroke="#F2F3F5" stroke-width="2"/><path d="M584.5 269l-17.571 17.571a10.001 10.001 0 0 1-7.071 2.929H520" stroke="#F2F3F5" stroke-width="2" stroke-linecap="round"/><circle r="5" transform="matrix(1 0 0 -1 514 289.5)" stroke="#F2F3F5" stroke-width="2"/><path d="M584.5 305l-17.571 17.571a10.001 10.001 0 0 1-7.071 2.929H540" stroke="#F2F3F5" stroke-width="2" stroke-linecap="round"/><circle r="5" transform="matrix(1 0 0 -1 534 325.5)" stroke="#F2F3F5" stroke-width="2"/><path d="M584.5 205.5l-17.571-17.571a10.001 10.001 0 0 0-7.071-2.929H540" stroke="#F2F3F5" stroke-width="2" stroke-linecap="round"/><circle cx="534" cy="185" r="5" stroke="#F2F3F5" stroke-width="2"/><path d="M619.5 352c0-6.351 5.149-11.5 11.5-11.5h561c6.35 0 11.5 5.149 11.5 11.5v34.5h-584V352z" fill="#fff"/><circle cx="654.5" cy="363.5" r="5.5" fill="#717783"/><circle cx="677.5" cy="363.5" r="5.5" fill="#717783"/><circle cx="700.5" cy="363.5" r="5.5" fill="#717783"/><path d="M619.5 352c0-6.351 5.149-11.5 11.5-11.5h561c6.35 0 11.5 5.149 11.5 11.5v34.5h-584V352z" stroke="#717783"/><path d="M619.5 386.5h584V712c0 4.142-3.36 7.5-7.5 7.5H627a7.5 7.5 0 0 1-7.5-7.5V386.5z" fill="#fff" stroke="#717783"/><path d="M643 500h537" stroke="#E48038" stroke-width="2" stroke-dasharray="2 5"/><path d="M1115.86 479.72h-1.56v4.812c0 .636-.04 1.2-.36 1.62-.3.384-.76.624-1.39.624-.63 0-1.1-.24-1.4-.624-.32-.42-.34-.984-.34-1.62v-4.812h-1.58v4.86c0 1.104.16 1.908.74 2.568.56.636 1.42.996 2.58.996 1.15 0 2.01-.36 2.58-.996.57-.66.73-1.464.73-2.568v-4.86zm3.98 0V488h1.57v-3.264h1.09c.83 0 1.55-.204 2.08-.648.54-.444.86-1.044.86-1.884 0-.84-.32-1.428-.86-1.872-.53-.444-1.25-.612-2.08-.612h-2.66zm2.47 3.792h-.91v-2.568h.87c.48 0 .81.084 1.07.276.27.192.49.528.49.984 0 .468-.19.804-.45.996-.27.192-.59.312-1.07.312zm8.11-2.532V488h1.55v-7.02h2.26v-1.26h-6.09v1.26h2.28zm9.41 3.66l1.96 3.36h1.82l-2.23-3.552c1.01-.312 1.79-.888 1.79-2.316 0-.792-.37-1.428-.89-1.824-.51-.396-1.21-.588-2.09-.588h-2.66V488h1.56v-3.36h.74zm.06-1.224h-.81v-2.472h.81c.51 0 .89.036 1.19.264.31.216.48.516.48.972 0 .468-.17.744-.48.972-.3.228-.68.264-1.19.264zm6.88-3.696V488h5.21v-1.296h-3.65v-2.352h3.35v-1.284h-3.35v-2.052h3.55v-1.296h-5.11zm10.42 2.172l4.2 6.108h1.57v-8.28h-1.52v4.08c0 .984.02 1.956.02 1.956l-4.12-6.036h-1.65V488h1.52v-4.068a125 125 0 0 0-.02-2.04zm9.84-2.172V488h2.65c1.44 0 2.51-.468 3.15-1.032.64-.564 1.32-1.536 1.32-3.12 0-1.572-.68-2.52-1.32-3.084-.64-.576-1.71-1.044-3.15-1.044h-2.65zm2.71 6.96h-1.15v-5.652h1.15c.9 0 1.56.3 1.97.672.4.384.83 1.056.83 2.16 0 1.116-.43 1.752-.83 2.136-.41.384-1.07.684-1.97.684z" fill="#E48038"/><path fill="#F2F3F5" d="M658 589h73v99h-73z"/><path fill="#D91818" d="M745 624h73v64h-73z"/><path fill="#F2F3F5" d="M832 572h73v116h-73zm87-28h73v144h-73zm87 28h73v116h-73z"/><path fill="#06C569" d="M1093 513h73v175h-73z"/><path d="M1111.63 771.602l-.02-86.933c0-5.399-5.85-8.764-10.52-6.049l-74.94 43.61c-5.71 3.321-4.07 11.971 2.46 12.97l40.31 6.171a6.972 6.972 0 0 1 4.39 2.527l25.87 32.098c4.15 5.143 12.45 2.211 12.45-4.394z" fill="#000" stroke="#000" stroke-width="2"/><path stroke="#CCCFD5" stroke-width="3" stroke-linecap="round" d="M1025.5 700.555h-53m65 0h-4m-24 30h-87m111 28h-43m-15 0h-7"/><path d="M588.5 579l8.119 16.736 15.094-11.79-.464 18.367 19.079-4.509-8.954 16.36 19.285 3.666-15.672 11.113 15.672 11.113-19.285 3.666 8.954 16.36-19.079-4.509.464 18.367-15.094-11.79-8.119 16.736-8.119-16.736-15.094 11.79.464-18.367-19.079 4.509 8.954-16.36-19.285-3.666 15.672-11.113-15.672-11.113 19.285-3.666-8.954-16.36 19.079 4.509-.464-18.367 15.094 11.79L588.5 579z" fill="#0045FF"/><path d="M589 628.5L699 548l88.5 42.5 138-152L1041 548l108.5-136.5" stroke="#000F2E" stroke-width="2"/><path fill-rule="evenodd" clip-rule="evenodd" d="M632.872 188.21l-1.833-1.558-1.039 5.679 5.438-1.94-1.803-1.532C644.983 176.642 661.185 169 679.173 169c30.901 0 56.534 22.554 61.335 52.099a63.347 63.347 0 0 0-23.896 18.584l.089.07c-4.109 4.828-7.44 11.698-8.941 18.043-.755 3.193-1.054 6.28-.74 8.925.313 2.642 1.246 4.898 3.007 6.341 3.459 2.834 8.113 2.603 12.501.531 4.394-2.075 8.63-6.036 11.399-10.883l-.043-.025c5.362-9.281 8.431-20.055 8.431-31.543a63.7 63.7 0 0 0-.7-9.437 61.946 61.946 0 0 1 24.563-5.043c34.32 0 62.142 27.822 62.142 62.142 0 11.319-3.026 21.93-8.314 31.07l.866.501c5.373-9.288 8.448-20.071 8.448-31.571 0-34.872-28.27-63.142-63.142-63.142-8.775 0-17.131 1.79-24.724 5.025C736.472 190.79 710.484 168 679.173 168c-18.293 0-34.77 7.78-46.301 20.21zm100.174 74.027l-.044-.025c5.287-9.14 8.313-19.751 8.313-31.07 0-3.063-.222-6.074-.649-9.018a62.356 62.356 0 0 0-23.222 18.119l.088.076c-4.028 4.699-7.322 11.464-8.799 17.707-.738 3.121-1.016 6.084-.72 8.577.296 2.496 1.159 4.465 2.648 5.686 3.043 2.493 7.24 2.383 11.44.4 4.186-1.977 8.267-5.777 10.945-10.452zM539.985 705.846l1.367 1.98 2.474-5.217-5.755.467 1.345 1.947c-14.124 8.863-31.752 12.051-49.127 7.395-29.848-7.997-48.769-36.417-45.76-66.198a63.352 63.352 0 0 0 27.891-11.766l-.067-.09c5.218-3.601 10.213-9.374 13.306-15.115 1.556-2.888 2.643-5.793 3.025-8.429.381-2.633.064-5.053-1.264-6.903-2.607-3.633-7.163-4.615-11.937-3.749-4.782.867-9.898 3.597-13.828 7.562l.036.036c-7.582 7.577-13.335 17.189-16.308 28.286a63.631 63.631 0 0 0-1.766 9.296c-8.118 1.185-16.605.772-25.032-1.486-33.15-8.883-52.823-42.957-43.941-76.108 2.93-10.933 8.599-20.4 16.072-27.86l-.707-.708c-7.593 7.581-13.354 17.201-16.331 28.31-9.025 33.683 10.964 68.306 44.648 77.332 8.476 2.271 17.011 2.705 25.183 1.546-2.926 30.167 16.278 58.907 46.521 67.01 17.67 4.735 35.599 1.485 49.955-7.538zm-77.601-97.431l.036.036c-7.472 7.46-13.142 16.926-16.072 27.86a62.809 62.809 0 0 0-1.706 8.878 62.344 62.344 0 0 0 27.119-11.491l-.065-.096c5.107-3.497 10.04-9.179 13.082-14.827 1.521-2.823 2.556-5.614 2.916-8.098.36-2.488.036-4.613-1.087-6.177-2.293-3.196-6.376-4.176-10.946-3.348-4.554.826-9.481 3.441-13.277 7.263z" fill="#000"/><circle cx="589" cy="629" r="7.5" fill="#fff" stroke="#000F2E"/><circle cx="698" cy="548" r="7.5" fill="#fff" stroke="#000F2E"/><circle cx="788" cy="589" r="7.5" fill="#fff" stroke="#000F2E"/><circle cx="925" cy="439" r="7.5" fill="#fff" stroke="#000F2E"/><circle cx="1041" cy="546" r="7.5" fill="#fff" stroke="#000F2E"/><circle cx="1150" cy="411" r="7.5" fill="#fff" stroke="#000F2E"/><path d="M670.5 326a7.5 7.5 0 0 1 7.5-7.5h215a7.5 7.5 0 0 1 7.5 7.5v141a7.5 7.5 0 0 1-7.5 7.5H678a7.5 7.5 0 0 1-7.5-7.5V326z" fill="#fff" stroke="#717783"/><path stroke="#CCCFD5" d="M822.5 367.5h59v12h-59zm0 25h59v12h-59zm0 25h59v12h-59z"/><path d="M775.296 349.521a57.499 57.499 0 0 0-69.683 90.179 57.497 57.497 0 0 0 87.083-6.083l-46.15-34.3 28.75-49.796z" fill="#F2F3F5"/><path d="M800.193 431.683a57.5 57.5 0 0 0-17.149-82.614l-29.68 49.248 46.829 33.366z" fill="#06C569"/><defs><clipPath id="a"><rect x="159.708" y="212.72" width="98.18" height="103.844" rx="49.09" fill="#fff"/></clipPath><clipPath id="b"><rect x="258.359" y="215.552" width="98.18" height="103.844" rx="49.09" transform="rotate(90 258.359 215.552)" fill="#fff"/></clipPath></defs></svg>